<svg clip-rule="evenodd" fill-rule="evenodd" stroke-linejoin="round" stroke-miterlimit="2" viewBox="0 0 600 730" xmlns="http://www.w3.org/2000/svg"><path d="m0 0h600v730h-600z" fill="none"/><path d="m552 682v16h-15v-16zm-5.146-69.566c-5.517.038-11.187.183-16.354 2.366-6.5 3-11.2 7.5-14.1 13.7-4 8.4-3.4 9.1 8.5 9.8 4.2.2 4.5 0 5.3-3 .5-1.8 2.6-4.7 5-6.7 3.6-3.2 4.8-3.6 9.5-3.6 9.1 0 14.3 4.3 14.3 11.6 0 3.4-.8 4.5-9.4 12.6-5.2 4.9-10.1 10.4-11 12.2-.9 1.9-1.6 5.9-1.6 9v5.6h15v-4.5c0-4.5.2-4.8 9.5-13.7 13.7-13.2 16.1-19.7 11.1-30.3-2.6-5.7-7-9.8-13.6-12.9-3.877-1.513-8-2.059-12.146-2.166z" fill="none" stroke="#fff" stroke-width="10"/><path d="m552 682v16h-15v-16zm-5.146-69.566c-5.517.038-11.187.183-16.354 2.366-6.5 3-11.2 7.5-14.1 13.7-4 8.4-3.4 9.1 8.5 9.8 4.2.2 4.5 0 5.3-3 .5-1.8 2.6-4.7 5-6.7 3.6-3.2 4.8-3.6 9.5-3.6 9.1 0 14.3 4.3 14.3 11.6 0 3.4-.8 4.5-9.4 12.6-5.2 4.9-10.1 10.4-11 12.2-.9 1.9-1.6 5.9-1.6 9v5.6h15v-4.5c0-4.5.2-4.8 9.5-13.7 13.7-13.2 16.1-19.7 11.1-30.3-2.6-5.7-7-9.8-13.6-12.9-3.877-1.513-8-2.059-12.146-2.166z" fill-rule="nonzero"/><path d="m431 612.8 22.8.4c21.2.3 23 .5 28 2.7 6.9 3.1 13.2 10.2 16.7 18.8 3.2 8.1 4.5 24.2 2.6 33.3-2.6 12.5-10.1 22.9-19.4 27.1-4.8 2.2-6.7 2.4-27.9 2.7l-22.8.4zm27.8 15.2h-10.8v56.3l11.3-.5c14.3-.5 18.1-2.2 21.7-9.3 2.3-4.6 2.5-6.1 2.5-19 0-13.1-.2-14.3-2.5-18.5-3.9-7-8.8-9-22.2-9z" fill="none" stroke="#fff" stroke-width="10"/><path d="m431 612.8 22.8.4c21.2.3 23 .5 28 2.7 6.9 3.1 13.2 10.2 16.7 18.8 3.2 8.1 4.5 24.2 2.6 33.3-2.6 12.5-10.1 22.9-19.4 27.1-4.8 2.2-6.7 2.4-27.9 2.7l-22.8.4zm27.8 15.2h-10.8v56.3l11.3-.5c14.3-.5 18.1-2.2 21.7-9.3 2.3-4.6 2.5-6.1 2.5-19 0-13.1-.2-14.3-2.5-18.5-3.9-7-8.8-9-22.2-9z" fill-rule="nonzero"/><path d="m367.3 613c33.1 0 39.4 1.8 44.3 12.5 6.6 14.3.2 30.1-13.7 33.6-2.7.7-4.9 1.5-4.9 1.8s1.5 1.6 3.4 2.8c5.3 3.4 10.2 10.1 24 33.1.5.9-1.6 1.2-9.6 1.2l-10.3-.1-10.4-15.5c-11.7-17.7-13.7-19.4-22.3-19.4h-5.8v35h-17v-85zm8.7 15h-14v21.2l13.8-.4c15.7-.4 18.2-1.3 20.2-7.3.9-2.6.9-4.4 0-6.9-1.9-5.9-4.1-6.6-20-6.6z" fill="none" stroke="#fff" stroke-width="10"/><path d="m367.3 613c33.1 0 39.4 1.8 44.3 12.5 6.6 14.3.2 30.1-13.7 33.6-2.7.7-4.9 1.5-4.9 1.8s1.5 1.6 3.4 2.8c5.3 3.4 10.2 10.1 24 33.1.5.9-1.6 1.2-9.6 1.2l-10.3-.1-10.4-15.5c-11.7-17.7-13.7-19.4-22.3-19.4h-5.8v35h-17v-85zm8.7 15h-14v21.2l13.8-.4c15.7-.4 18.2-1.3 20.2-7.3.9-2.6.9-4.4 0-6.9-1.9-5.9-4.1-6.6-20-6.6z" fill-rule="nonzero"/><path d="m276 613v33h34v-33h17v85h-17v-37h-34v37h-17v-85z" fill="none" stroke="#fff" stroke-width="10"/><path d="m276 613v33h34v-33h17v85h-17v-37h-34v37h-17v-85z" fill-rule="nonzero"/><path d="m92.8 613 1.6 6.8c7.2 30.1 13.1 51.2 13.7 49.6.3-1.1 3.3-14.2 6.5-29.1l5.9-27.3h8.8c7.9 0 8.8.2 8.3 1.8-.3.9-3.3 13.2-6.7 27.2s-7.8 32.3-9.8 40.5l-3.6 15h-18.8l-8.1-30.7c-4.4-16.9-8.3-30.4-8.7-30-.3.4-3.4 11.3-6.8 24.2-3.5 12.9-7.1 26.4-8.1 30l-1.7 6.5-19 .6-2.2-9.3c-1.2-5.1-5.6-24.1-9.9-42.3l-7.8-33 8.4-.3c4.7-.2 8.6-.1 8.8.1s3.2 13 6.6 28.5 6.5 27.6 6.9 26.9c.4-.6 3.7-12.7 7.3-26.7 3.7-14 6.9-26.3 7.2-27.2.5-1.6 1.9-1.8 10.8-1.8zm112.1 0 .9 3.3c.5 1.7 3.7 14.8 7.3 28.9 3.5 14.1 6.5 25.5 6.7 25.3.4-.4 1.2-3.7 8.6-37.5 2-9.1 3.9-17.3 4.2-18.2.5-1.5 1.8-1.8 9-1.8 8.2 0 8.4.1 7.9 2.3-.3 1.2-4.5 18.9-9.4 39.2-4.9 20.4-9.2 38.5-9.6 40.3l-.7 3.2h-9.4c-5.2 0-9.4-.2-9.4-.4 0-.3-2.5-9.8-5.6-21.3-3.1-11.4-6.8-25.2-8.1-30.6-1.4-5.4-2.9-9.5-3.3-9-.3.4-4.2 14.4-8.5 31.1l-7.9 30.2h-9.3c-6.6 0-9.5-.4-9.8-1.2-.3-.7-2.2-8.7-4.4-17.8s-6.4-27-9.5-39.9-5.6-24-5.6-24.8c0-1.1 1.8-1.3 8.7-1.1l8.7.3 6 28.2c3.3 15.5 6.3 27.9 6.7 27.5.5-.6 11.1-39.5 14-51.4l1.1-4.8z" fill="none" stroke="#fff" stroke-width="10"/><path d="m92.8 613 1.6 6.8c7.2 30.1 13.1 51.2 13.7 49.6.3-1.1 3.3-14.2 6.5-29.1l5.9-27.3h8.8c7.9 0 8.8.2 8.3 1.8-.3.9-3.3 13.2-6.7 27.2s-7.8 32.3-9.8 40.5l-3.6 15h-18.8l-8.1-30.7c-4.4-16.9-8.3-30.4-8.7-30-.3.4-3.4 11.3-6.8 24.2-3.5 12.9-7.1 26.4-8.1 30l-1.7 6.5-19 .6-2.2-9.3c-1.2-5.1-5.6-24.1-9.9-42.3l-7.8-33 8.4-.3c4.7-.2 8.6-.1 8.8.1s3.2 13 6.6 28.5 6.5 27.6 6.9 26.9c.4-.6 3.7-12.7 7.3-26.7 3.7-14 6.9-26.3 7.2-27.2.5-1.6 1.9-1.8 10.8-1.8zm112.1 0 .9 3.3c.5 1.7 3.7 14.8 7.3 28.9 3.5 14.1 6.5 25.5 6.7 25.3.4-.4 1.2-3.7 8.6-37.5 2-9.1 3.9-17.3 4.2-18.2.5-1.5 1.8-1.8 9-1.8 8.2 0 8.4.1 7.9 2.3-.3 1.2-4.5 18.9-9.4 39.2-4.9 20.4-9.2 38.5-9.6 40.3l-.7 3.2h-9.4c-5.2 0-9.4-.2-9.4-.4 0-.3-2.5-9.8-5.6-21.3-3.1-11.4-6.8-25.2-8.1-30.6-1.4-5.4-2.9-9.5-3.3-9-.3.4-4.2 14.4-8.5 31.1l-7.9 30.2h-9.3c-6.6 0-9.5-.4-9.8-1.2-.3-.7-2.2-8.7-4.4-17.8s-6.4-27-9.5-39.9-5.6-24-5.6-24.8c0-1.1 1.8-1.3 8.7-1.1l8.7.3 6 28.2c3.3 15.5 6.3 27.9 6.7 27.5.5-.6 11.1-39.5 14-51.4l1.1-4.8z" fill-rule="nonzero"/><path d="m325.6 16c1.9 0 1.9 6.9-.1 11.7-.8 1.9-1.5 3.8-1.5 4.2 0 .3 7.4.7 16.4.9 12.2.2 17.4-.1 20.5-1.1 3.8-1.4 4.2-1.3 5.1.3 1.5 2.8 1.2 6.2-1 10.5-1.1 2.1-1.7 4.2-1.2 4.5 4.1 3.4 15.2 11 16.1 11 .6 0 1 .4.8.9-.1.5 1.4 3.1 3.5 5.8 4.5 5.9 7.7 13.8 8.9 21.8 1.2 8.1 1.2 34.2-.1 38.5-.5 1.9-1.7 8.7-2.5 15-.9 6.3-1.8 12.5-2 13.7-.5 2-.1 2.3 2.3 2.3 4.2 0 9.4 3.9 11.1 8.4 1.2 3.3 1.3 5.5.3 14-1.7 14.9-7.3 30.2-12.7 34.4-1.4 1.2-3.9 2.3-5.4 2.7l-2.8.6.5 6.9c.2 3.7-.1 12.1-.8 18.5-1.2 11.1-1.4 11.9-5.6 18.1l-4.3 6.4 1.9 10.3c2.5 13.6 3.6 16.3 6.8 17.5 1.5.6 7.2 2.7 12.7 4.7s13.8 5.2 18.4 7.1 8.6 3.3 8.8 3c.2-.2-3.2-1.9-7.6-3.7-4.5-1.8-8.1-3.6-8.1-4 0-.7 1.4-.6 20 1 6.3.6 15.7 1.3 20.9 1.7 16.6 1 38.7 9 51 18.3 6 4.5 15 14.1 19.8 21.1 5.6 8.3 17.5 30.9 21.8 41.3 11.6 28.5 15.5 48.5 15.5 78.9 0 18.1-1.1 29.1-4.4 44.8-1.4 6.3-3.6 17.1-5.1 24-4.7 22.5-8.7 31.8-19.1 43.9-6.3 7.3-20 12-34.4 11.9-5.8-.1-8.4.4-11.7 2-13.4 6.9-30.2 10.9-53.3 12.7-25.5 2-46 1.8-58.5-.5-5.5-1-17.6-3.2-27-4.9-24.4-4.4-43.5-9.1-63.5-15.9-9.6-3.3-19.3-6.7-21.6-7.6l-4-1.7-8.5 4c-10.7 5-25.1 9.7-35.4 11.6-24.6 4.5-65.2 6.6-77.3 4.1-17.2-3.7-43.1-14.7-52.7-22.5-9.1-7.3-15.4-11.2-22.1-13.7-3.7-1.3-7.4-2.4-8.4-2.4-3.6 0-5.1-2.6-8-14.2-5.4-21.6-7.5-55.8-4.5-76.3 3.5-24.3 4.6-31.1 7.1-40.2 2.9-11.3 5.1-17.5 9.5-27 3.7-8.1 11.5-27 13.6-33.2 1.8-5.4 8.2-17.1 14.9-27.1 4.9-7.6 13-16.4 19.4-21.2 4.8-3.6 23.3-11.4 30-12.6 16.9-3.1 53.5-5.1 54.2-3 .3.8 3.3.4 10.4-1.6 15-4.3 27.4-9.5 28.4-12 1.3-3.1 3.8-17 4.6-25.3.6-6.5.4-7.3-1.6-9.5-5.1-5.3-6.3-9.6-6.8-23.1-.4-10.7-.8-13-2.1-13.5-3.9-1.4-14.9-17-21.4-30.2-2.7-5.7-3.1-7.6-3.2-14.8 0-8.2 0-8.4 3.4-11.4 2.8-2.5 4-2.9 7.7-2.6 3.1.2 4.4-.1 4.4-1 0-.7-1.4-7-3.1-14-5.1-21.4-8.3-41.6-8.3-53.7 0-9.9.2-11.5 2.6-16.5 3.5-7.1 3.9-7.6 13.1-14.4 14.9-11 29.2-16.7 54.7-21.7 27.1-5.3 57-13.5 58.5-16 .4-.5 1.3-.9 2.1-.9z" fill="none" stroke="#fff" stroke-width="10"/><g fill-rule="nonzero"><path d="m325.6 16c1.9 0 1.9 6.9-.1 11.7-.8 1.9-1.5 3.8-1.5 4.2 0 .3 7.4.7 16.4.9 12.2.2 17.4-.1 20.5-1.1 3.8-1.4 4.2-1.3 5.1.3 1.5 2.8 1.2 6.2-1 10.5-1.1 2.1-1.7 4.2-1.2 4.5 4.1 3.4 15.2 11 16.1 11 .6 0 1 .4.8.9-.1.5 1.4 3.1 3.5 5.8 4.5 5.9 7.7 13.8 8.9 21.8 1.2 8.1 1.2 34.2-.1 38.5-.5 1.9-1.7 8.7-2.5 15-.9 6.3-1.8 12.5-2 13.7-.5 2-.1 2.3 2.3 2.3 4.2 0 9.4 3.9 11.1 8.4 1.2 3.3 1.3 5.5.3 14-1.7 14.9-7.3 30.2-12.7 34.4-1.4 1.2-3.9 2.3-5.4 2.7l-2.8.6.5 6.9c.2 3.7-.1 12.1-.8 18.5-1.2 11.1-1.4 11.9-5.6 18.1l-4.3 6.4 1.9 10.3c2.5 13.6 3.6 16.3 6.8 17.5 1.5.6 7.2 2.7 12.7 4.7s13.8 5.2 18.4 7.1 8.6 3.3 8.8 3c.2-.2-3.2-1.9-7.6-3.7-4.5-1.8-8.1-3.6-8.1-4 0-.7 1.4-.6 20 1 6.3.6 15.7 1.3 20.9 1.7 16.6 1 38.7 9 51 18.3 6 4.5 15 14.1 19.8 21.1 5.6 8.3 17.5 30.9 21.8 41.3 11.6 28.5 15.5 48.5 15.5 78.9 0 18.1-1.1 29.1-4.4 44.8-1.4 6.3-3.6 17.1-5.1 24-4.7 22.5-8.7 31.8-19.1 43.9-6.3 7.3-20 12-34.4 11.9-5.8-.1-8.4.4-11.7 2-13.4 6.9-30.2 10.9-53.3 12.7-25.5 2-46 1.8-58.5-.5-5.5-1-17.6-3.2-27-4.9-24.4-4.4-43.5-9.1-63.5-15.9-9.6-3.3-19.3-6.7-21.6-7.6l-4-1.7-8.5 4c-10.7 5-25.1 9.7-35.4 11.6-24.6 4.5-65.2 6.6-77.3 4.1-17.2-3.7-43.1-14.7-52.7-22.5-9.1-7.3-15.4-11.2-22.1-13.7-3.7-1.3-7.4-2.4-8.4-2.4-3.6 0-5.1-2.6-8-14.2-5.4-21.6-7.5-55.8-4.5-76.3 3.5-24.3 4.6-31.1 7.1-40.2 2.9-11.3 5.1-17.5 9.5-27 3.7-8.1 11.5-27 13.6-33.2 1.8-5.4 8.2-17.1 14.9-27.1 4.9-7.6 13-16.4 19.4-21.2 4.8-3.6 23.3-11.4 30-12.6 16.9-3.1 53.5-5.1 54.2-3 .3.8 3.3.4 10.4-1.6 15-4.3 27.4-9.5 28.4-12 1.3-3.1 3.8-17 4.6-25.3.6-6.5.4-7.3-1.6-9.5-5.1-5.3-6.3-9.6-6.8-23.1-.4-10.7-.8-13-2.1-13.5-3.9-1.4-14.9-17-21.4-30.2-2.7-5.7-3.1-7.6-3.2-14.8 0-8.2 0-8.4 3.4-11.4 2.8-2.5 4-2.9 7.7-2.6 3.1.2 4.4-.1 4.4-1 0-.7-1.4-7-3.1-14-5.1-21.4-8.3-41.6-8.3-53.7 0-9.9.2-11.5 2.6-16.5 3.5-7.1 3.9-7.6 13.1-14.4 14.9-11 29.2-16.7 54.7-21.7 27.1-5.3 57-13.5 58.5-16 .4-.5 1.3-.9 2.1-.9z"/><path d="m380.5 595.9c-28.1-1.7-48.1-5.1-78-13-8.2-2.2-18.8-4.9-23.5-6-9.5-2.2-23-6.8-23-7.8 0-.3 4.4-3.5 9.7-7.1 6.9-4.6 14.5-11.3 26.3-23.1 9.1-9.1 19.4-18.4 22.7-20.7 3.4-2.3 6.7-4.7 7.4-5.5 7.8-7.8 40.7-31.6 52.9-38.3 15.1-8.3 15.9-8.7 17.3-7.7 2.4 1.9 6 2.2 9.1.6 2.3-1.2 4.7-1.4 9.9-1 7.5.7 9.3 0 15.4-5.6l3.1-2.9 15.9.4c8.7.3 16.6.8 17.6 1.3 1.2.5 1.7.3 1.7-.8 0-.9-.8-1.8-1.7-2.1-1.5-.4-29.9-2.5-35.8-2.6-2-.1-2-.1 0-1.7 1.1-.8 5.4-3.1 9.5-5s9.8-4.5 12.6-5.9c2.8-1.3 6.5-2.7 8.3-3l3.3-.7-.7 4.7c-1 6.1.6 5.9 2.9-.5 2-5.6 2.5-5.9 13.7-8.6 6.1-1.4 7.5-1.5 10.2-.3 1.8.7 8.6 2.2 15.2 3.3 11.3 1.8 20.5 4.4 20.5 5.8 0 1.8-20 2.4-28.4.8-3.2-.5-7.1-.7-8.7-.4-3.4.8-9.9 6-9.9 7.9 0 4 9.1 7.3 22.1 8.3 7 .5 10.6.1 18.5-1.6 14.8-3.4 19.1-5 22.4-8.3 5.8-5.7 3.9-11.9-5.2-17-2-1.2-3.5-2.5-3.2-3 .6-.9 12.9-.2 14.4.7.4.3 1.3 2.6 2.1 5.2 1.7 5.8 1.7 41.6.1 58.9-1.7 17.2-6 35.8-13 55.6-3.9 10.9-5.2 13.5-10.7 20.7-3.5 4.6-5.7 6.4-10.6 8.6-5.9 2.6-17.9 4.9-17.9 3.4 0-.4.7-1 1.6-1.3 1.8-.7 1-2.6-1.2-2.6-.8 0-6.5 2.4-12.7 5.4-12.8 6.2-25 10.1-38.7 12.1-10.4 1.6-41.1 1.8-63.5.4zm59.3-23c-.4-1.3-13.4-6.6-19.7-8-4.7-1.1-8.9-1.8-24.6-4.5-4.9-.8-20-2.1-33.5-2.8-25.2-1.4-27.3-1.8-37.6-6.8-8.4-4.2-26.1-6.3-27.1-3.2-.2.6 3.3 1.5 8.9 2.2 6.4.7 13.1 2.5 21.3 5.5l12 4.4 20 .6c27.8.8 59.6 5.7 72.1 11.1 6.4 2.7 8.8 3.2 8.2 1.5zm16-30.3c5.4-2.8 8.9-8.4 12.5-19.7.5-1.6 6.4-2.9 13.1-2.9 4.5 0 13.6-3.4 16.5-6.2 3.5-3.4 7.3-12.6 7.2-17.5 0-5.2-1.2-7.6-6-12.6-5-5.3-8.1-6.7-14.9-6.7-4.7 0-7.3.7-14.1 4l-8.3 4-5.6-4.9c-7.9-6.7-12.1-9.1-16.4-9.1-3.2 0-4.7 1-12.1 8-4.6 4.4-8.8 7.6-9.2 7.2-1.2-1.1.3 17.6 2.5 30.4 1.1 6.4 2 13.5 2 15.8 0 6.1 1.4 7.4 9.5 8.6 3.9.6 8.8 1.5 11 1.9 6.1 1.3 9.3 1.2 12.3-.3zm-11.8-5.6c0 .6.5 1 1 1 .6 0 1-.4 1-1 0-.5-.4-1-1-1-.5 0-1 .5-1 1zm7.5 0c.3.6.8 1 1.1 1 .2 0 .4-.4.4-1 0-.5-.5-1-1.1-1-.5 0-.7.5-.4 1zm-4-3c.3.6 1.1 1 1.6 1 .6 0 .7-.4.4-1-.3-.5-1.1-1-1.6-1-.6 0-.7.5-.4 1zm7.6.1c2.9 1.8 4.1.2 1.5-2-1.1-.9-1.6-.9-2.1 0-.4.6-.1 1.5.6 2zm-4.8-2.8c2.1.9 2.7.7 2.7-.8 0-.8-.9-1.5-2-1.5-2.2 0-2.7 1.5-.7 2.3zm-12.5-2.6c2 1.2 3.8 2.2 3.8 2.3.4.1 5.4-8.1 5.4-8.8s-4.2-3.2-5.4-3.2c-.5 0-2.9 6.3-2.8 7.2.1.4-.9.3-2.3-.2-3.7-1.4-3 .2 1.3 2.7zm19.2.2c0 .6.5 1.1 1 1.1.6 0 1-.2 1-.4 0-.3-.4-.8-1-1.1-.5-.3-1-.1-1 .4zm-11-.9c0 .6.5 1 1 1 .6 0 1-.4 1-1 0-.5-.4-1-1-1-.5 0-1 .5-1 1zm6.5-1.1c.8 1.3 3.5 1.5 3.5.2 0-1-3-2.4-3.7-1.7-.3.3-.2.9.2 1.5zm-3.5-3c0 .6.5 1.1 1 1.1.6 0 1-.2 1-.4 0-.3-.4-.8-1-1.1-.5-.3-1-.1-1 .4zm-16.6-2.9c-.6 2.4-.6 2.5.9.5 1.9-2.3 2.2-4.5.7-4.5-.5 0-1 .3-1 .8 0 .4-.3 1.8-.6 3.2zm-4.4-.1c0 2.2 1.8 1 2.9-1.9.5-1.7.6-3 .1-3-1 0-3 3.3-3 4.9zm9-1.9c0 .6.5 1 1 1 .6 0 1-.4 1-1 0-.5-.4-1-1-1-.5 0-1 .5-1 1zm12-.1c0 .6.5 1.1 1 1.1.6 0 1-.2 1-.4 0-.3-.4-.8-1-1.1-.5-.3-1-.1-1 .4zm-3-1.5c0 1.8.6 2.1 1.5.7.3-.5.1-1.2-.5-1.6-.5-.3-1 .1-1 .9zm35-19.9c-.7.8-2 1.5-2.9 1.5-4.4 0-5.7-6.8-1.9-9.4 3.2-2.3 3.6-2.1 4.9 2.4.9 3.1.9 4.3-.1 5.5zm-6.6 3.3c-1 4.2-2.2 4.8-3.4 1.8-1.5-4-1.3-4.6 1.5-4.6 2.3 0 2.5.3 1.9 2.8zm-1.5 10.6c1.4 1.7 3 2 5.6 1 1.5-.6 1.5-.8 0-2.4-1-1.1-1.5-3-1.3-4.7.2-2.2.9-2.9 3-3.1 2.2-.3 2.9.2 3.4 2.2.3 1.3.3 3.3 0 4.4-.6 1.6-.1 2.1 2.6 2.5 6.9 1 9.6-3.7 5.7-9.9-1.7-2.8-2.2-5.1-2.2-9.5.1-7.5-1.3-8.5-8.4-6.4-2.6.8-6.1 1.5-7.6 1.5-1.8 0-4 1.2-6.2 3.5-3.5 3.5-4.4 5.5-2.4 5.5.5 0 .7-.4.4-1-.3-.5-.1-1 .5-1 1.4 0 .9 9.2-.5 10.2-.6.5-.3.8.6.8 1 0 1.9 1.1 2.2 2.6.3 1.9.1 2.4-1 2-.8-.3-1.1-.1-.8.4.3.6 1.6.8 2.9.4 1.4-.3 2.7.1 3.5 1zm4.6-17.4c.3.6.8 1 1.1 1 .2 0 .4-.4.4-1 0-.5-.5-1-1.1-1-.5 0-.7.5-.4 1zm-16.2 17.4c3.9 1.5 4.6.3 2-3.4-1.3-1.7-1.8-4.4-1.8-8.8v-6.3l-2.2 2.7c-3.2 4.1-3.7 8.1-1.3 12 1.2 1.8 2.6 3.5 3.3 3.8zm-34.5-3.2c3.2 1.9 4.6 2.2 3.7.8s-6.5-4.2-6.5-3.3c0 .5 1.2 1.5 2.8 2.5zm3.2-2.2c2.5 1.6 3.5 1.1 1.7-.7-.9-.9-2-1.3-2.4-.9s-.1 1.1.7 1.6zm49 0c0 .6.5 1 1 1 .6 0 1-.4 1-1 0-.5-.4-1-1-1-.5 0-1 .5-1 1zm-47-3c0 2.4 3.2.7 6-3.2 1.6-2.2 3-4.4 3-4.7 0-.7-5.8-4.7-8.1-5.6-1.1-.4-2.1.6-3.5 3.6-1.3 2.9-1.5 4.4-.7 4.6 1.9.7 5.7 4.3 4.5 4.3-.7 0-1.2.5-1.2 1zm7-1.5c-.8.9-.8 1.5-.2 1.5 1.2 0 2.6-1.9 1.9-2.6-.2-.2-1 .2-1.7 1.1zm-9.5-.5c.3.6.8 1 1.1 1 .2 0 .4-.4.4-1 0-.5-.5-1-1.1-1-.5 0-.7.5-.4 1zm13.5-2c0 .6.5 1 1 1 .6 0 1-.4 1-1 0-.5-.4-1-1-1-.5 0-1 .5-1 1zm3-2.7c0 .5.9.2 2-.8s1.8-2 1.5-2.3c-.6-.7-3.5 1.8-3.5 3.1zm-3.8-3.2c-.3.6.1 1 .8.8 1.2-.5 1.5-1.9.3-2-.4 0-.9.5-1.1 1.2zm-3.2-3.1c0 .6.5 1 1 1 .6 0 1-.4 1-1 0-.5-.4-1-1-1-.5 0-1 .5-1 1zm5.5.1c.4.5 1 .9 1.5.9 1.4 0 2.1-1.8 1-2.5-1.3-.8-3.2.4-2.5 1.6zm-9.5-2.1c0 .6.5 1 1 1 .6 0 1-.4 1-1 0-.5-.4-1-1-1-.5 0-1 .5-1 1zm6-1.4c0 1.7 2.2 1.4 2.8-.4.2-.7-.3-1.2-1.2-1.2s-1.6.7-1.6 1.6zm7.2.3c-.3.8.1 1.2.9.9.7-.2 1.5-1 1.7-1.7.3-.8-.1-1.2-.9-.9-.7.2-1.5 1-1.7 1.7zm-15.7-.9c-.3.6-.1 1 .4 1 .6 0 1.1-.4 1.1-1 0-.5-.2-1-.4-1-.3 0-.8.5-1.1 1zm5.1-.8c.4.6 1 .6 1.7-.1 1.3-1.3.3-2.6-1.2-1.6-.6.3-.8 1.1-.5 1.7zm6.4-2.1c0 .5.4.9.9.9 1.3 0 3.5-2.9 2.8-3.7-.8-.7-3.7 1.5-3.7 2.8zm-9.5-1.1c-.3.6-.1 1 .4 1 .6 0 1.1-.4 1.1-1 0-.5-.2-1-.4-1-.3 0-.8.5-1.1 1zm5.5-.6c.1.6 1 0 2.1-1.3s1.7-2.7 1.3-3c-.7-.7-3.4 2.8-3.4 4.3zm-342.1-1.5c-1.8.6-3.4 1.1-3.5 1.1-.8 0-.3-1.9.6-2.5 1.9-1.2 1.1-3.8-1-3.2-1.1.3-2.3.1-2.6-.4-.7-1.1 3.9-2.9 7.4-2.9 2.6.1 2.6.1.7 1.3-2.3 1.3-2.2 4.9.1 4 .8-.3 1.4-.1 1.4.5s-1.4 1.5-3.1 2.1zm1.1 6.1c-1.5.3-2.7 1.6-3.1 3-.6 2.3-.7 2.4-1.3.5-.4-1.1-1.2-3-1.7-4.3-1.4-3.7-1-4.9.9-2.4 1.5 1.9 2.1 2.1 5 1.3 2.5-.7 3.2-.7 2.9.2-.2.6-1.4 1.4-2.7 1.7zm4.1 8.9 2.3 2.1h-5.2c-5.8 0-6.2-.7-3.1-5.1 2.3-3.3 5.4-4 4.4-1-.4 1.3.2 2.7 1.6 4zm3.8 9.4c-.2.2-2 1.3-4 2.5l-3.6 2.2-1.3-2.5c-1.5-2.8-.4-5 1.1-2.2 1.5 2.7 3 2 2.3-1-.6-2.7-.6-2.7.9-.8 1.9 2.5 3.3 1.4 1.7-1.4-.6-1.2-.7-2.1-.2-2.1 1 0 3.8 4.8 3.1 5.3zm3.9 9.1c-.2.1-1.7 1.1-3.5 2.4-3.2 2.2-3.2 2.2-4.3.3-2.5-4.7.2-8.7 4.6-7.1 1.7.7 4.1 4 3.2 4.4zm62.7 34.6c-7.9 1.3-12.5 1.2-12.5-.4 0-.9 2.1-1.5 7.3-2 8.4-.8 45.7-6.1 53.7-7.7 6.1-1.2 11-2.9 18.5-6.4 14.6-6.8 27.4-10.6 43.2-13 12.1-1.8 13.3-1.8 13.3-.5 0 .5-1.7 1.2-3.7 1.5-15.8 2.4-26.3 5-31.1 7.7-1.8 1-3.7 1.8-4.2 1.8s-3.9 1.4-7.6 3.1c-11.6 5.4-19.5 7.2-51.7 12.1-11.1 1.6-22.4 3.3-25.2 3.8zm-31.6 40.6c2.6 2.6 53.2-4.8 78.6-11.5 18.4-4.9 21.1-5.7 27.2-8.9 11.1-5.6 21-13.6 42.4-34.4 11.8-11.3 23.9-22.6 26.9-25 6.9-5.5 32.6-22.5 50.5-33.3 9.4-5.6 13.6-8.3 18.7-11.6 3.4-2.2 3.5-2.5 1.7-3.1-1.1-.4-7.3-1.3-13.7-1.9-6.4-.5-16-1.7-21.2-2.5-13.8-2.2-30.4-4.1-57-6.4-12.9-1.1-24.6-2.2-26-2.5-1.4-.2-6.8-.7-12-1s-12-1-15-1.5-15.8-1.2-28.5-1.6l-23-.6-2.3 4c-2 3.7-2.1 4.5-1.1 8.7.8 3.3 1.7 4.6 3.3 4.9 6.5 1.4 10.5 1.4 14 .2 2.5-.9 5-1.1 6.8-.6 1.8.6 4.1.3 6.7-.7 4.5-1.8 8.8-1.3 14.5 1.6 3 1.6 4.3 1.8 6.4.9 2.7-1 14-1.4 17.7-.5 1.1.3 5.5.8 9.8 1.2 4.2.4 7.7 1.2 7.7 1.6 0 .5-1 .9-2.1.9-1.8 0-1.9.2-.9 1.5 1.9 2.3 1 2.5-5.1 1.5-4-.6-5.7-.5-6.4.4-2.7 3.5-8.8 4.5-15.3 2.7-2.3-.7-4.9-.5-9 .6-3.1.8-8.5 1.5-11.9 1.4-4.3 0-6.5.4-7.4 1.5-.8 1-2.8 1.4-6.3 1.3-3.7-.1-6.3.5-9.5 2.1-3.1 1.7-6.5 2.4-12 2.7-13.1.7-14.1 1.5-10.5 8.5 1.1 2.1 1.4 4.3 1 7-.5 2.7-.3 3.7.4 3.3s1-.1.9.6c-.4 2.5 2.4 6.9 4.3 6.9 1.8 0 1.8-.3-.6-3.1-3.4-4-3.6-10.3-.4-12 1.9-1 2.5-.8 5.1 2.2 1.6 1.9 2.5 2.5 1.9 1.4s-2.6-3.6-4.6-5.4c-2.1-2.1-3.6-4.5-3.6-5.9 0-1.3.4-2 1-1.7s1 1.5 1 2.5c0 1.1 1.1 2.7 2.5 3.6 3.2 2.1 6.9 8 6.1 9.9-.9 2.4-2.5 1.7-4.8-2-1.1-2-2.2-3.4-2.5-3.2-.6.7 1.9 5.7 2.9 5.7.4 0 .8.5.8 1 0 .6-.8 1-1.7.8-1.1-.2-1.8.3-1.8 1.2s.7 1.4 1.9 1.2c1.4-.3 1.7.1 1.2 1.3-.3.9-.6 2.3-.6 3.1 0 .9-1.1 1.4-2.8 1.4-2.1 0-3.7-1-6.1-4-2.9-3.6-3.1-4.5-2.6-8.3.5-2.9.2-5.1-.9-7.2-.9-1.6-1.6-3.8-1.6-4.7 0-2.3-.8-2.2-4.7.2-3.9 2.3-4 3.2-1.1 11.5 2.6 7.5 1.9 11.9-2 12.1-2.6.1-4.2-2.8-4.2-7.4 0-2-.3-2.3-1.2-1.4-.8.8-.9 1.8-.1 3.5.7 1.5.8 2.9.1 4-.7 1.3-.5 1.7.6 1.7s1.2.4.3 2.5c-.7 1.3-1.9 2.7-2.7 3-1.8.7-5-2.9-5-5.6 0-1-.4-2-.8-2.3-.5-.3-.9-2.6-1-5.1 0-3.9.3-4.8 2.3-5.7 1.6-.7 2.4-2.2 2.9-5.2.3-2.2.9-5.5 1.2-7.3.5-2.8.4-3.1-1.4-2.6-1.2.3-3.7 0-5.6-.7-4.3-1.4-6.4-.2-10.3 5.5-3.6 5.3-4.1 10.6-1.4 14.1 2.7 3.4 2.8 9.4.2 11.8-1.5 1.3-2 1.4-2.4.4-.3-.9-.9-.8-2 .7-1.4 1.8-1.5 1.5-2.2-4.8-.7-6.7-1.7-7.9-3.9-4.4-.8 1.2-.7 2.3.2 3.7.7 1.2 1 2.5.7 3-.3.4.1 1 .7 1.3 2.1.7-3.3 5.8-5.7 5.5-1.4-.2-2.1-1.2-2.3-3.3-.1-1.6-.8-4-1.4-5.2-2.1-4.3.4-9.1 5.5-10.7 1.2-.4 1.7-1.6 1.7-4.3 0-2.3 1.3-6.5 3.2-10.3 1.8-3.6 3.4-6.9 3.6-7.4.7-1.4-6.5.1-11.3 2.4-5.2 2.5-10.4 3.5-14 2.6-5-1.3-7.9-9.7-5.6-15.9 1.9-5 14.5-5.8 22.3-1.3 2 1.1 3.9 1.8 4.2 1.6.8-.9-2.7-10.3-4.6-12.2-1-1-1.8-2.7-1.8-3.8 0-2.3.4-2.3-13 1.2-7 1.9-11.1 3.8-8.1 3.8.7 0 1 .4.7.9s-2.4.7-4.6.4-4-.3-4 0c0 2.1 1.6 3.7 3.5 3.7 1.3 0 2.7.5 3 1 .4.6-.8 1-2.8 1-2.7 0-3.6.5-4 2.2-1.1 4.1-1.7 1.2-1.1-4.9l.7-6 5.6-1.8c3.1-1 7.6-2.4 10-3l4.3-1.2.2-11.6c.1-9.6-.2-11.8-1.4-12.2-.8-.2-5.3-1.1-10-2s-12.4-2.5-17.3-3.5c-8.5-1.7-8.8-1.7-9.7 0-.6 1-1 2.7-1 3.6 0 2.1 2.8 5.4 4.7 5.4 2.1 0 1.6 2.2-1.7 7.3-2.7 4.2-3.3 4.7-6.7 4.7-11.2.1-26.2.9-28.9 1.5-3.1.7-3.2.8-4.8 10.3-4.6 27.2-4.3 41.7 1.5 80.1 2.5 16 3.1 17.9 6.1 18.5 19.2 4.2 22.1 5.3 21.5 7.8-.4 1.4 1.7 3.4 9.1 8.7 18.8 13.2 31.6 18.5 52.7 21.6 6 .9 11.1 1.8 11.4 2.1zm-37.9-75.5c0 2.4 1.2 2.4 3.4 0 1.5-1.7 1.6-1.9.1-2.5-2.2-.8-3.5.1-3.5 2.5zm-6-19c0 .5.7.9 1.5.9.9 0 1.2-.6.9-1.5-.6-1.5-2.4-1.1-2.4.6zm29.7 7.2c.3.4 0 .7-.7.7s-1-.3-.7-.7c.4-.3 1-.3 1.4 0zm-2 4c.3.4 0 .7-.7.7s-1-.3-.7-.7c.4-.3 1-.3 1.4 0zm.4 6.6c.2 2.7.3 2.3.8-1.9.8-6.8 2.4-9.8 5.7-10.6 3.2-.8 5.4 1.2 7 6.4l1.2 3.7.1-3.6c.1-2.4-.6-4.2-1.9-5.4-3.9-3.5-1.8-13 4.2-19.2 3.1-3.2 3.1-3.3 1.2-4.8-1-.8-2.4-1.5-3.1-1.5-2.9 0-9.3 13.4-9.3 19.6 0 3-.4 3.7-3 4.5-3.8 1.4-6.5 6.3-4.4 8 .8.6 1.5 2.8 1.5 4.8zm2.9 1.1c0 .7.3 1 .7.7.3-.4.3-1 0-1.4-.4-.3-.7 0-.7.7zm29.1-2.2c1.3 3.4 1.7 2.6.9-1.9-.8-4.2.1-10.4 1.8-12.1s5.2.2 6.7 3.5c1.9 4.1 1.2.6-1-5.4-2.5-6.3-1.5-9.2 4.1-12.5 3.7-2.2 6.3-2.8 14.7-3.4 10.9-.8 13.8-1.6 19.2-5.3 4.7-3.2 3.5-3.9-2.6-1.6-2.9 1.2-10.8 2.5-19.4 3.3-9.7.9-15.3 1.9-16.9 3-2.5 1.6-4.1 5.6-5.2 13.1-.4 2.2-1.3 4.6-2.2 5.3-.9.6-1.2 1.2-.8 1.2s.4.5 0 1.1c-.5.8-.8.8-1.4 0-.4-.7-.6.3-.5 2.1.2 3.2.6 4.5 2.6 9.6zm-29.6-1.8c-.3.6-.1 1 .4 1 .6 0 1.1-.4 1.1-1 0-.5-.2-1-.4-1-.3 0-.8.5-1.1 1zm7-2.6c.4 2 1.1 3.6 1.6 3.6 1.2 0 1.1-5.1-.1-7-1.4-2.3-2.2-.5-1.5 3.4zm28.5-6.4c0 .7.3 1 .7.7.3-.4.3-1 0-1.4-.4-.3-.7 0-.7.7zm20-3.2c0 2.2.5 3.2 1.5 3.2 1.8 0 1.8-.1 0-3.6l-1.5-2.9zm-33-20.2c3.7 1.3 10.3 1.8 11.3.8.3-.4-2.9-2.4-7.2-4.5-7.8-3.8-12.6-8.1-16.8-15-2.2-3.4-2.2-3.6-.5-7.2.9-2 2.3-3.6 3-3.7 1 0 .9.7-.3 3-2.1 4-2 4.7 1.8 9.6 3.5 4.7 5.6 5.3 11.4 3.2 2.4-.9 3.2-1.6 2.7-2.8-.4-.8-1.2-3.3-1.8-5.6s-1.6-4.7-2.2-5.5-1.4-2.2-1.7-3.2c-.6-1.6-1.4-1.7-5.4-1.2-7.1 1-8 1.4-8.6 3.5-.6 2.4-3.9 2.6-5.7.5-.7-.8-1.6-1.5-2.1-1.5-1.5 0-1 2.3 1 4.4 1 1.2 2.6 4.4 3.5 7.3 2.9 8.7 8.6 14.6 17.6 17.9zm-36-2.2c0 .9.5 1.6 1 1.6.6 0 1-.4 1-.9 0-.6-.4-1.3-1-1.6-.5-.3-1 .1-1 .9zm94.6-1.9c-.4 1.1.2 1.5 2.4 1.5 3.3 0 4.8-1.5 2.4-2.4-2.6-1-4.2-.7-4.8.9zm-29.9-1.6-2.1 2.1h3.8c3.8 0 9.6-2.6 9.6-4.3 0-1.8-9.2 0-11.3 2.2zm12.4.7c-1.4 1.3 4.1 0 9.7-2.2 9.8-3.9 13.2-7.4 7.3-7.4-2.4 0-12.9 6-17 9.6zm24-2c3.5.6 7.9 1.2 9.7 1.3 3.8.1 14-3.3 16.1-5.4 2.8-2.7.2-2.8-5.3-.1-3.1 1.5-7.3 2.7-9.4 2.8-5.3.1-12.1-1.2-12.8-2.4-.3-.5-1.4-.2-2.6.9-2 1.8-1.9 1.8 4.3 2.9zm34.2-.3c-.3.4 0 .7.7.7s1-.3.7-.7c-.4-.3-1-.3-1.4 0zm-6.3-1.3c2 1.3 4.3 1.3 3.5 0-.3-.5-1.6-1-2.8-1-1.8 0-1.9.2-.7 1zm-130-.9c0 .6.5.7 1 .4.6-.3 1-1.1 1-1.6 0-.6-.4-.7-1-.4-.5.3-1 1.1-1 1.6zm43-2.1c2.8.8 3.5.6 2.6-.8-.3-.6-1.6-.7-2.9-.4-2.2.6-2.2.6.3 1.2zm26.9-11.2c.7 1.3.9 2.7.7 3-.3.2-1.1-.7-1.7-2.2-1.4-3.1-.3-7.6 2.1-8.4 1.1-.4 1 .1-.4 2.3-1.5 2.2-1.6 3.2-.7 5.3zm-.8 9.5c1.4 1.8 3 2.7 5 2.7 3.3 0 3.6-.6 1.3-3.1-1.9-2.1-4.3-8.5-4.4-11.6 0-1.2 1.2-3.5 2.6-5.2l2.6-3.1h-5.6c-5.2 0-7 1-4.6 2.5.6.4.8 2.6.4 5.5-.8 5.9-.1 8.8 2.7 12.3zm-22.9-1.9c2.8 3.4 6 4.6 7.2 2.7.3-.4-.6-1.9-2-3.2-5.3-4.9-6.9-11.6-3.7-15.1 1.5-1.7 1.5-1.8 0-1.8-1 0-1.7.5-1.7 1 0 .6-.9 1-1.9 1-1.1 0-2.3-.4-2.6-1-.9-1.5-2.5-1.2-2.5.4 0 .8.7 1.7 1.6 2 .8.3 1.3 1 .9 1.6-1 1.7 1.6 8.7 4.7 12.4zm70 2.4c1.4 1.4 3.8 1.6 3.8.3 0-.5-2.2-1.7-4.9-2.6-4-1.3-5.7-1.4-9-.5-2.3.6-4.1 1.2-4.1 1.3s2.9.2 6.5.2c3.8 0 6.9.5 7.7 1.3zm165.8.3c0 .6.8.8 1.8.5.9-.2 3.6-.7 5.9-1.1 4.3-.7 8.2-3.5 4.9-3.5-.9 0-3.3.7-5.3 1.5-1.9.8-4.4 1.5-5.4 1.5-1.1 0-1.9.5-1.9 1.1zm14-1.1c0 .3 1.8.6 4 .8 2.2.1 4-.1 4-.6 0-1.7-1.3-2.1-3.1-1.1-1.5.7-1.7.6-1.3-.6.4-.8.2-1.5-.3-1.5-1 0-3.3 2.1-3.3 3zm-239.7-.7c-.3.4 0 .7.7.7s1-.3.7-.7c-.4-.3-1-.3-1.4 0zm0-2c8.7 1.1 8.2 1.4 8.1-6.1-.2-10.6-.6-11.2-7.3-11.2-5.4 0-5.7.1-7.5 3.4-3.1 5.7.5 13.1 6.7 13.9zm321.1-4.4c2.8.4 5.5.4 6 0s.5-2.8 0-5.6c-.9-4.5-1.1-4.8-4.3-5.1-3.5-.4-3.7.1-1.6 5.1.4 1 .3 1.7-.4 1.7s-1.9-1.6-2.7-3.5-1.9-3.5-2.6-3.5c-2.2 0-7.7 5-7.2 6.5.7 1.7 5.9 3.5 12.8 4.4zm-86.9-2.6c.4 1.5.8 2.7.9 2.7 0 0 .1-8.4.2-18.8 0-11.8-.2-17.2-.7-14.7-1 5-1.3 27.2-.4 30.8zm5.5-4c0 4.7.4 6.7 1.3 6.7.6 0 4.5-3.2 8.5-7 6.1-5.9 9.4-8.1 19.5-12.9 15.8-7.6 35.3-14.2 50.2-17.1 3.3-.6 7.8-1.6 10.1-2.1 7.3-1.6 36.8-4.1 41.2-3.5 3.2.4 4.2.2 4.2-.8 0-2.1-2.4-2.6-12.8-2.6-9.4 0-16.9 1-42.2 5.8-14.3 2.8-38 10.8-49.5 16.9-5.4 2.9-6.6 3.6-16.5 10.3-3.5 2.4-7.2 4.3-8.2 4.3-1.1-.1-1.8.7-2 2.5-.2 1.5-.7 2.7-1.3 2.7-3.7 0 1.1-30 7.6-47.2 3.5-9.5 6.7-14.9 13-21.8 8.4-9.1 14.7-10.9 13.6-3.9-.7 4-1 4.7-10.6 21.2-11 18.8-14 24.5-16.1 30.7-2.1 6-2 7.1.2 2.8 3.5-6.8 16.2-29.7 21.2-38.2 8.8-15 11.2-25 5.6-24.2-8.3 1.1-19.3 11.7-25.8 24.6-7 14-11.1 33.4-11.2 52.8zm103.7 1.4 1.7 4 7-1.3c12.1-2.4 12.6-2.9 5.6-6.4-4-2-12.4-2.7-14.8-1.2-.9.7-.8 1.7.5 4.9zm-176.2-.4c-.4.9-.3 1.7.2 1.7s2.2-3.7 3.8-8.2c1.6-4.6 4.4-11.9 6.3-16.3s4.7-11.6 6.3-16c5.6-14.9 8.1-21 13-30.7 2.7-5.4 4.9-10.1 4.9-10.5 0-.3-1.8 1.7-3.9 4.6-5 6.7-10.1 17.2-13.9 28.6-1.7 5-5 14.2-7.5 20.5-2.4 6.3-5.3 14.4-6.5 18-1.1 3.6-2.4 7.3-2.7 8.3zm-13.8.1c.3.5 1.7-1.3 3.1-4 2.9-5.8 6-9.4 8-9.4 1.1 0 1.3.8.8 3-.3 1.7-.8 4.5-1.1 6.3-.4 2.5-.1 2.2 1-1.3 1.6-4.7 2.3-11.6 1.2-12.6-.3-.3-1.5-.1-2.6.5-2.4 1.4-11.2 16.1-10.4 17.5zm-17.9-2.4c2.4 1.3 3.6 1.2 2.4-.2-2-2.7-11.2-24.6-13.1-31.8-6.2-22.6-6.5-24.1-5.5-25.8 1.5-2.4 4.7-2.6 7.2-.5 1.2 1 3.8 5 5.7 8.8 4.2 8.4 4.5 7.2.8-2.6-2-5-4-8.2-7-10.9-7-6.6-11.1-3-9.8 8.5.7 6.6 7.1 27.2 11.4 36.8 1.5 3.4 3.6 8.6 4.5 11.4 1 2.9 2.5 5.7 3.4 6.3zm-171.8-1c0 .6.2 1 .4 1 .3 0 .8-.4 1.1-1 .3-.5.1-1-.4-1-.6 0-1.1.5-1.1 1zm157.8-1.7c3.9 4.5 1.2-.7-3.8-7.3-1.5-1.9-4-5.7-5.5-8.5-4.2-7.5-16-23.7-28.5-39.5-4.2-5.2-10.1-13.1-13.2-17.5-9.9-14.1-23.8-27.8-23.8-23.5 0 1.7 4.1 12 5.1 12.5.5.4.5-.5-.1-2-1.2-3.2-1.2-3.5-.1-3.5 2.9 0 21.5 21.8 38.2 44.9 4 5.6 9.3 12.8 11.6 15.9s7.4 10.4 11.4 16.2 7.9 11.3 8.7 12.3zm-166.4-1.9c-.7 1.7-1.2 1.8 13.6-.9 4.1-.8 10.9-2 15.1-2.6l7.7-1.3-6.2-2.9c-3.3-1.6-8.9-3.9-12.3-5.2l-6.2-2.2-5.6 5.8c-3 3.1-5.5 6.2-5.5 6.7 0 .6-.3 1.7-.6 2.6zm-4.7-.5c-.9 1-.8 1.1.6.5 1-.3 1.5-.9 1.2-1.2s-1.1 0-1.8.7zm-.3-2.3c-1.8 1.4-1.8 1.4.6.3 3.1-1.4 3.6-1.9 2.4-1.9-.6 0-1.9.7-3 1.6zm45.6-4.5c8.6 4.9 10 5.5 10 4.2 0-.5-2.6-2.1-5.8-3.6-3.1-1.5-9-4.9-13-7.4-6.6-4.2-7.7-5.4-10.8-11.5-1.9-3.8-5.2-9.4-7.4-12.6-4.1-5.9-4.7-7.2-3-7.2 2.2 0 8.3 6.7 14.3 15.8 3.5 5.3 7.2 10.4 8.2 11.2 3.5 2.9-1.2-4.8-10-16.5-7-9.3-9.1-11.4-13.9-13.8-3.1-1.6-6.4-2.7-7.3-2.5-1.5.3-1 1.1 2.3 4.8 6.4 7.2 10.8 13.1 12.7 17.3 2 4.7 2 4.7.5 4.7-.7 0-3.3-2.1-5.9-4.6-3-2.9-6-4.9-8.5-5.4-6-1.4-8.5-1-3.1.5 4.7 1.3 11.7 5.3 11.7 6.7 0 1.2-1.8 1.9-2.4.9-.3-.5-3.6-1.9-7.2-3.2-3.7-1.3-6.9-2.9-7.1-3.6-.3-.7-1.6-1.3-3-1.3-1.3 0-8.4-2-15.6-4.5-8.9-3.1-17.4-5.2-26.2-6.6-7.1-1-13.8-2.2-14.7-2.5-2.7-.8-9.4.7-7.6 1.7.8.5 2.8.8 4.4.7 10.1-.4 33.3 4.5 52.5 11.1 18 6.2 23.8 9.1 55.9 27.2zm193.1 3.6c0 1 1.3-.7 2.8-3.7s3.7-7.3 4.9-9.4c2.3-4.3 2.1-6.1-.4-3-2.3 2.8-7.4 14.1-7.3 16.1zm-241.1-.2c0 .3 2-.5 4.5-1.7 2.4-1.2 4.3-2.3 4.1-2.6-.5-.4-8.6 3.6-8.6 4.3zm0-3.4c0 .9 7.4-2.2 12.6-5.3 3.5-2.1 4.7-3.5 1.7-2-1 .5-4.6 2.2-8 3.7-3.5 1.6-6.3 3.2-6.3 3.6zm395.7-.4c5.1 1.5 6.9 1.5 12.8-.6l5-1.8-3.5-2.1c-5.3-3.3-12.2-3-15.5.6l-2.5 2.7zm-469.6-2.6c2.3 1.4 4.3 1.1 10.7-2.1 4.9-2.5 6.5-3.9 8.1-7.4 2.3-4.7 2.8-10.5.9-11-.7-.3-3.6-.7-6.5-1-4.4-.4-5.5-.2-7.7 1.9-1.4 1.3-2.6 3.2-2.6 4.2.1 1.7.1 1.7 1.4.1 1-1.4 2.8-1.8 8-1.8 6.2 0 6.6.1 6.6 2.3 0 2.3-3.1 3.5-14 5.6-2.8.5-3.7 1.3-4.9 4.4-1.2 3.3-1.2 4 0 4.8zm73.9.1c0 .5 3.2-.8 7-2.7 7.2-3.6 9.6-5.6 3.8-3.1-6.8 2.8-10.8 5-10.8 5.8zm374-1.2c3.5.9 6.1 0 3.2-1.3-1.1-.5-2.9-.6-3.9-.2-1.6.7-1.5.9.7 1.5zm-329.5-2.4c1 .8 2 1.2 2.3 1 .2-.3.4-4 .3-8.4-.1-5.9-.8-10.3-3-16.8-1.6-4.9-3.2-10.5-3.6-12.4-.6-3.2-1.6-5.8-4.8-13-1.9-4.3-11.6-20.4-14.3-23.7-1.5-1.8-2.1-3.3-1.4-3.3.6 0 8.3 7.3 17.1 16.2 8.7 8.9 15.9 15.8 15.9 15.4s-2.4-3.3-5.3-6.4-10.4-11.5-16.7-18.7c-9.8-11.3-18.5-19.3-19.7-18.2-.5.5 6.9 13.8 9.9 17.8 1.4 1.9 6 10 10.2 18.2 6.8 13 8.1 16.3 10.7 27.8 3.1 13.7 3.7 21.3 1.7 22.5-.8.5-.5 1.1.7 2zm-40.2-2.2c-2.6 1.4-4.2 2.5-3.5 2.6 1.7 0 9.5-4 8.9-4.6-.3-.3-2.7.6-5.4 2zm-74-6.1c-.3.4 0 .7.7.7s1-.3.7-.7c-.4-.3-1-.3-1.4 0zm4.2-3.3c.3.6 1 1 1.6 1 .5 0 .9-.4.9-1 0-.5-.7-1-1.6-1-.8 0-1.2.5-.9 1zm353.6-6.6c-.1 1.1.2 1.7.5 1.3.3-.3.4-1.2.1-1.9-.3-.8-.6-.5-.6.6zm1.6-6.9-.7 5 2.1-5.5c1.1-3 2.9-8.2 3.8-11.5 1-3.3 3.2-8.8 5-12.2 3-6.1 4.1-9.7 2.2-7.8-.5.6-2.5 3.9-4.4 7.5-3.9 7.4-7.2 17.1-8 24.5zm-340.7-22.5c0 .7.3 1 .7.7.3-.4.3-1 0-1.4-.4-.3-.7 0-.7.7zm0-3c0 .7.3 1 .7.7.3-.4.3-1 0-1.4-.4-.3-.7 0-.7.7zm2.6-10.3c.6 2.4.9 1.8 1.4-3.7.4-4.1 1.7-8.5 3.4-11.8 1.5-3 2.6-6.3 2.4-7.5-.2-1.7-1-.8-3.5 3.8-3.4 6.5-5 14.7-3.7 19.2zm224.4-9.4c10.5 1.1 16 .3 29.3-4 7.4-2.3 5-2.6-3.9-.3-11.8 2.9-29.2 2.8-41.5-.4-5.2-1.4-9.5-2.3-9.7-2.2-.1.2 1.9 1.3 4.5 2.4 4.5 1.9 12.7 3.7 21.3 4.5zm39.8-8.3c-2.9 1-4.8 1.9-4.2 1.9 3.8.3 25.1-9.3 36.1-16.2 6.2-3.9 17.1-14.5 19.7-19.1 2.4-4.2 3.9-12.7 2.9-16.5-.8-3.2-2-2.5-1.5.9.6 4-1.6 12.7-4.3 17-6.7 10.6-28.1 24.6-48.7 32zm-77.8-2.4c8 3.1 10.9 3.9 9.9 3-.2-.2-4.5-2.2-9.4-4.4-8.1-3.5-22.2-12.1-32.8-19.9-5.2-3.8-11.4-12-13.3-17.7-.9-2.7-1.4-6.8-1.2-10.1.1-3 .2-5.5 0-5.5s-1.1.8-2.2 1.8c-1 .9-5.7 3-10.5 4.7-4.7 1.6-8.4 3.4-8.1 4 .2.6-2 2.8-5 5-2.9 2.2-5.3 4.4-5.4 4.8 0 .5 3.5-1.8 7.8-5.1 7.5-5.7 13-8.8 13.9-7.8.3.3-.8 1.7-2.3 3.1-3.9 3.6-1 2.1 4.4-2.3 2.4-1.9 4.5-3.2 4.7-3s.8 3.1 1.4 6.5c.5 3.5 1.8 7.9 2.8 10 2.4 5.3 11.1 13.3 22.3 20.7 11.7 7.8 12.5 8.2 23 12.2zm42.5-5.3c15.5 1.5 30.2-.8 42.6-6.5 11.7-5.5 24.5-14.4 30.1-21.1 6.9-8.3 7.3-9.9 4.8-16.1-2.7-6.7-4.5-13.6-6-22.1-.7-3.8-1.6-7.6-1.9-8.3-.5-.9-2.6.2-7.2 4-3.6 2.9-10.7 8.7-15.8 12.8-5 4-10 8.9-11.1 10.6-2.5 4.4-7.8 6.8-18.2 8.4-15.9 2.4-29-.4-36.7-7.8-2.6-2.6-7.8-6.9-11.5-9.7-8.8-6.6-25.8-20.8-32-26.7-2.7-2.6-5.2-4.5-5.6-4.3-.4.3-1.1 3.5-1.5 7.2-1 10.2-3.4 23.2-5.2 29.1-1.4 4.3-2.1 5.2-3.5 4.9-2.8-.8-2.3 3 1.2 9 6.5 11.3 26.1 24.4 46.8 31.3 7.4 2.4 15.8 3.9 30.7 5.3zm-130-40.8c-4.7 2.1-.6 1.6 5-.6 4.1-1.5 4.4-1.8 1.5-1.3-1.9.4-4.8 1.2-6.5 1.9zm77.5-140c0 1.4-2.1.2-3.6-2-1.1-1.7-1.4-3.6-1-5.5.5-2.8.3-3-2.4-3-1.6 0-4.8.7-7 1.6-2.3.9-4.4 1.4-4.7 1-1.1-1.1 2.4-7.4 6.7-11.9l4-4.4-2-11.6c-2.2-13.5-4.6-19-9.8-22-4.4-2.6-2.1-3.7 2.7-1.3 4.5 2.4 7.8 10.2 9.8 23.4 1.5 9.8 2 11.3 3.8 11.6 1.1.2 8.5 1.9 16.5 3.6 21.8 4.9 29.1 6.2 33 5.6 2.8-.4 3.8-.1 4.8 1.4.8 1.3.8 2.1.1 2.6-.6.3-.8 1.2-.5 1.9.2.7-.5 1.5-1.7 1.9-3.3.8-4.1-.9-1.3-2.8 1.5-.9 2.6-2.1 2.6-2.7 0-.5-1.6.2-3.6 1.7-2.7 2.1-5 2.9-9.5 3.2-6.1.5-6.8.9-4.7 3 .9.9.8 1.2-.5 1.2-.9 0-1.7.5-1.7 1 0 2.3-1.9.8-2.2-1.7-.2-1.7-1.2-3.2-2.8-4-2.4-1.2-2.5-1.1-2.8 2-.5 4.6-2.8 6.7-7.4 6.7-5.3 0-9.3-3.8-8.4-8.1.5-2.9.5-2.9-3.8-2.9-3.9 0-4.5.3-5 2.6-.5 1.7-.1 3.5.9 5 .8 1.3 1.5 2.6 1.5 2.9zm70.8 32c-.2 4.1-.6 7.5-.9 7.5-1.8 0-3.4-3.9-3.5-8.4-.5-21.3-1.6-39.1-2.4-40.1-.6-.7-.6-1.5.1-2.2.8-.8.8-1.3 0-1.7-2.6-1.6-.7-2.6 5-2.6 4.5 0 7.9-.8 13.3-3 10.4-4.4 20-6.9 28.4-7.7 8.3-.7 8.2-.8 13.3 9.1 3 5.8 3 5.9.7 5.1-1.2-.4-4.6-1-7.5-1.2l-5.2-.5.7 2.9c1.1 3.9.4 6.8-1.9 8.9-2.5 2.3-3.5 1.2-1.5-1.8 2-2.7 2-5.8.3-8.2-1.1-1.6-2.2-1.8-5.9-1.2l-4.6.7 1.5 3c1.3 2.7 1.3 3.2-.1 5.4-3.4 5.2-14.6 2.3-14.6-3.8 0-1-.5-1.7-1.2-1.4-.7.2-1.3 1.6-1.3 3-.1 1.4-.4 2.9-.8 3.3s-.7.2-.7-.4c0-.7-1-1.2-2.1-1.2-1.6 0-2-.5-1.6-2 .4-1.7 0-2-2.4-2-2.7 0-2.9.3-2.9 3.7 0 2.1.7 5.6 1.6 8 1.3 3.4 2.7 4.9 7.3 7.4 3.1 1.8 5 3.4 4.3 3.7-2.6.9-6.5-1-11.4-5.6l-5.1-4.7.8 5.5c.8 5.4.8 7.7.3 22.5zm-4.4 23c-5.9 4-17.2 3-21.3-1.8-.7-1-2.8-1.7-4.7-1.7-2.5 0-3.8-.7-5-2.5-.8-1.3-1.3-2.9-.9-3.5.5-.8 1.1-.3 1.9 1.2.9 1.8 2.1 2.4 5.4 2.6 2.3.2 4.2.7 4.2 1.3 0 .5 1.5 1.8 3.3 2.9 4.7 2.9 12.1 2.7 16.2-.4 1.7-1.3 4.4-2.6 6-2.8 2.7-.3 3.5-1.1 5.1-5.3.7-1.8.8-1.7 1.2.8.4 3.5-2.2 6.7-5.4 6.7-1.3 0-4 1.1-6 2.5zm9.3 30.9c-2.5 1.9-4.4 2.1-16.9 2.4-9.8.3-13.8 0-13.3-.7.4-.7 5.1-1.1 12.4-1.1 10.6 0 12.1-.2 15.1-2.2 4.2-2.8 4.5-3.9 2.3-6.6-1.7-2-3-2.1-24.3-2.5-15.5-.3-24.7-.1-29.5.8-3.8.7-7.2 1.1-7.4.9-1.4-1.2 2.8-3.2 8.2-4 13-1.8 61.3-.3 71.2 2.2 1.4.3 2.5 1.3 2.5 2.1 0 1.1-.5 1.3-1.7.8-1-.4-5-1-8.9-1.2l-7.2-.5.2 3.7c.1 3-.5 4.1-2.7 5.9zm-11.2 13.1c-1.6.1-5.9.4-9.5.9-4.2.5-6.1.5-5.5-.2 3.2-3 16.9-4.3 22-2 3.6 1.6 3.1 2.9-.7 2-1.8-.4-4.6-.7-6.3-.7zm-1.3 26.7c1 .6.8.8-.5.8-1.9 0-3.3-2.3-2.2-4 1-1.7 2.8-1.1 2.1.7-.4.9-.1 2 .6 2.5zm-17.1 12.6c2.4.6 9.8.9 16.5.8 15.4-.3 18.7-1.7 22.7-9.6 2.2-4.5 2.7-6.7 2.5-11.7-.1-3.5.1-6.5.4-6.8 1.2-1.2 3.1 2.8 3.7 7.7l.6 5.2 5.1-4.5c2.8-2.4 10.3-8.9 16.8-14.3 7-6 12.7-11.8 14.3-14.5l2.8-4.6-.3-24c-.1-13.6-.9-30.5-1.8-39-1.1-9.8-1.4-18.6-1-25.5 1.8-32.2 1.8-46.4.1-57-5-30.1-17.1-36-55.5-27-21 4.9-33.2 4.6-56.5-1.5-8.3-2.2-15.3-2.1-22.9.5-5.5 1.8-7.4 3.1-12.5 8.6-8.9 9.4-8.7 8.5-8.7 57.9l.1 42 4.1 5c4.5 5.4 15.3 21.2 19.5 28.5 2.2 3.7 2.7 6.3 3.3 14.5.5 8 1.1 10.6 2.8 12.9 2.2 3.1 2.2 3.4 1.3 16.8l-.4 5.7 10.7 9.5c5.8 5.3 11.1 9.5 11.8 9.4.7-.2 4.7 2.9 8.7 6.9 5.8 5.5 8.4 7.4 11.8 8.1zm-112.8-1.5c-.3.4 0 .7.7.7s1-.3.7-.7c-.4-.3-1-.3-1.4 0zm61.2-39.3 6 4.8.9-7.5c.8-6.7.7-7.7-1.2-10.2-1.5-2.1-2.3-5.6-3.2-14.2-1.2-11.7-2.3-14.8-7-20.9-1.4-1.9-4.3-6.2-6.3-9.5-1.9-3.3-5.2-7.6-7.2-9.5l-3.6-3.4.6 7.4c.3 4.1 1 10.9 1.5 15s1.2 12 1.4 17.6c.3 5.6.9 11 1.3 12 1.1 3.1 10.4 13.2 16.8 18.4zm147.5-58.4c0 .8-.5 1.4-1.1 1.4s-.9-1.2-.7-2.7c.2-2.1-.1-2.8-1.4-2.8-2.8 0-3.1-1.3-.9-4.3 2.8-4 2.7-5.1-1-6.4-3.1-1.1-3.1-1.2-2.6-6.5.6-5.8 3.6-11.5 7.3-14 2.3-1.4 2.6-1.4 4.4.2 2.4 2.2 3.7 8.2 2.1 9.8-.8.8-1.1.5-1.1-1.3-.1-7.3-3.3-9.2-6.9-4.1l-2.1 2.9h2.6c1.4 0 2.9.3 3.4.8 1 1 3.1 12.6 2.4 13.3-.5.6-4.4-3-4.4-4.1 0-.5.5-.6 1-.3 1.1.7 1.3-.9.4-5.4-.5-2.6-1.1-3-3.3-2.9-3.2.3-4.1 1.4-4.1 5.5 0 2.5.7 3.6 3 5 3.4 2 3.6 3.2 1.5 7.2-1.3 2.7-1.3 2.9.7 3.4 1.4.4 1.9 1.1 1.4 2.2-.3.9-.6 2.3-.6 3.1zm-7.9-3.3c1.1 12.2 1.4 13.7 3.1 13.7 8.1 0 17.8-34 13.6-48-1.2-3.9-1.8-4.5-4.4-4.8-3.6-.4-8.1 2.9-11.4 8.4-2.6 4.1-2.7 9.9-.9 30.7zm-167.6-.2c.4 1.3.2 1.9-.8 1.9-1.8 0-3-2.7-1.6-3.6.6-.3 0-1.9-1.5-3.9-3.8-5-3-9.5 1.6-9.5 2.2 0 2.2.2-.2-6.2-2.9-7.5-4.9-9.9-7.9-9.1-2.2.5-2.3 1-1.8 5.4.6 5-.6 6.8-1.7 2.7-1.3-5.1-.7-8.8 1.7-9.7 1.9-.8 2-1 .5-1.6-2.5-1-2.3-2.4.2-1.8 3.3.9 9.3 8.6 11.8 15 2.9 7.7 2.8 8.4-.9 8.1-4.3-.4-4.6 1.3-.9 5.5 1.9 2.2 2.7 3.8 2 4.2-.6.4-.8 1.5-.5 2.6zm.3 8.7c1.3 1.7 2.7 3.2 3.1 3.2 1 0 1-15.7 0-28.9-1.4-17.6-3.1-20.8-12.3-23.3-4.6-1.2-4.9-1.2-6.7 1.1-2.5 3.1-2.6 13.3-.1 19.9 2 5.2 11.9 22.6 16 28zm164.9-45.5c.5 2.7.6 2.7 2.4 1.1s1.8-1.8.2-3.6c-2.1-2.3-3.3-1.2-2.6 2.5zm-164.5-.9c1.1 2 1.2 1.9 2-1.3 1.1-4 .2-5.3-1.7-2.7-1.1 1.5-1.2 2.4-.3 4zm167.5-3.8c3.3 2.6 4.3 2.3 4.3-1.7 0-1.9-.6-3.2-1.7-3.6-1-.3-2.6-1.3-3.5-2.1-1.7-1.4-1.8-1.3-1.8 1.9 0 2.4.7 3.9 2.7 5.5zm-169.7-2.7.1 2.6 2.4-3c1.4-1.7 2.5-4.3 2.5-5.9v-3l-2.5 3.4c-1.4 1.9-2.5 4.5-2.5 5.9zm170.3-5.9c1.7 1.1 3.5 2 3.8 2 .4 0 .9-1.8 1.1-4 .3-3.3 0-4-1.4-4-.9 0-2.5-1.1-3.6-2.5s-2.3-2.5-2.6-2.5-.6 2-.6 4.5c0 4 .4 4.7 3.3 6.5zm-172.3-1c0 1.1.3 2 .8 2 1.6 0 6.6-7.6 6.9-10.7.4-4.2-.2-4.2-2.3 0-.9 1.7-2.5 4-3.5 5-1.1 1-1.9 2.7-1.9 3.7zm-2-7.4c1 2.9 1.4 3.3 2.7 2.3 2.5-2.2 7.3-12.7 7.3-16.1v-3.3l-2 2.5c-1.1 1.4-2.5 4-3.1 5.8-.8 2.6-1.4 3.1-2.4 2.2-2.3-1.9-3.9 2.3-2.5 6.6zm173.8-3.1c3.9 4.8 5.9 4.5 6.7-.8s.4-9.3-1-9c-.5.1-1.2 1.2-1.5 2.4-.6 2.3-.6 2.2-2.8-.5-1.2-1.6-2.2-3.4-2.3-4 0-.6-.4-.2-.9.9-1.7 3.8-1 7.7 1.8 11zm-176.3-7c.6 2.7.8 2.8 1.9 1.2.7-.9 1.9-1.7 2.7-1.7 1.9 0 6.9-9.4 6.9-12.9 0-5.2-1.8-4.3-5.4 2.6-3.6 7-3.9 7.1-3.6 1.6.1-1.8-.1-3.3-.5-3.3-1 0-3.5 6.8-3.1 8.2.3.7.7 2.6 1.1 4.3zm176.1-6.5c2.3 3.4 2.9 3.8 3.6 2.5.6-.9 1.7-1.4 2.7-1 1.5.4 2-.2 2.5-3.7.6-3.7.4-4.5-2-6.7l-2.6-2.6.6 3.8c.9 4.8-.4 4.7-4-.5l-2.9-4.2-.3 4.2c-.2 3.1.3 5.1 2.4 8.2z" fill="#fff"/></g></svg>