<?xml version="1.0" encoding="UTF-8"?>
<!DOCTYPE svg PUBLIC "-//W3C//DTD SVG 1.1//EN" "http://www.w3.org/Graphics/SVG/1.1/DTD/svg11.dtd">
<svg version="1.1" xmlns="http://www.w3.org/2000/svg" xmlns:xlink="http://www.w3.org/1999/xlink" x="0" y="0" width="600" height="730" viewBox="0, 0, 600, 730">
  <g id="Background">
    <rect x="0" y="0" width="600" height="730" fill="#000000" fill-opacity="0"/>
  </g>
  <g id="layer101">
    <g id="WWHRD?">
      <path d="M552,682 L552,698 L537,698 L537,682 L552,682 z M546.854,612.434 C541.337,612.472 535.667,612.617 530.5,614.8 C524,617.8 519.3,622.3 516.4,628.5 C512.4,636.9 513,637.6 524.9,638.3 C529.1,638.5 529.4,638.3 530.2,635.3 C530.7,633.5 532.8,630.6 535.2,628.6 C538.8,625.4 540,625 544.7,625 C553.8,625 559,629.3 559,636.6 C559,640 558.2,641.1 549.6,649.2 C544.4,654.1 539.5,659.6 538.6,661.4 C537.7,663.3 537,667.3 537,670.4 L537,676 L552,676 L552,671.5 C552,667 552.2,666.7 561.5,657.8 C575.2,644.6 577.6,638.1 572.6,627.5 C570,621.8 565.6,617.7 559,614.6 C555.123,613.087 551,612.541 546.854,612.434 z" fill="#000000"/>
      <path d="M431,612.8 L453.8,613.2 C475,613.5 476.8,613.7 481.8,615.9 C488.7,619 495,626.1 498.5,634.7 C501.7,642.8 503,658.9 501.1,668 C498.5,680.5 491,690.9 481.7,695.1 C476.9,697.3 475,697.5 453.8,697.8 L431,698.2 L431,612.8 z M458.8,628 L448,628 L448,684.3 L459.3,683.8 C473.6,683.3 477.4,681.6 481,674.5 C483.3,669.9 483.5,668.4 483.5,655.5 C483.5,642.4 483.3,641.2 481,637 C477.1,630 472.2,628 458.8,628 z" fill="#000000"/>
      <path d="M367.3,613 C400.4,613 406.7,614.8 411.6,625.5 C418.2,639.8 411.8,655.6 397.9,659.1 C395.2,659.8 393,660.6 393,660.9 C393,661.2 394.5,662.5 396.4,663.7 C401.7,667.1 406.6,673.8 420.4,696.8 C420.9,697.7 418.8,698 410.8,698 L400.5,697.9 L390.1,682.4 C378.4,664.7 376.4,663 367.8,663 L362,663 L362,698 L345,698 L345,613 L367.3,613 z M376,628 L362,628 L362,649.2 L375.8,648.8 C391.5,648.4 394,647.5 396,641.5 C396.9,638.9 396.9,637.1 396,634.6 C394.1,628.7 391.9,628 376,628 z" fill="#000000"/>
      <path d="M276,613 L276,646 L310,646 L310,613 L327,613 L327,698 L310,698 L310,661 L276,661 L276,698 L259,698 L259,613 L276,613 z" fill="#000000"/>
      <path d="M204.9,613 L205.8,616.3 C206.3,618 209.5,631.1 213.1,645.2 C216.6,659.3 219.6,670.7 219.8,670.5 C220.2,670.1 221,666.8 228.4,633 C230.4,623.9 232.3,615.7 232.6,614.8 C233.1,613.3 234.4,613 241.6,613 C249.8,613 250,613.1 249.5,615.3 C249.2,616.5 245,634.2 240.1,654.5 C235.2,674.9 230.9,693 230.5,694.8 L229.8,698 L220.4,698 C215.2,698 211,697.8 211,697.6 C211,697.3 208.5,687.8 205.4,676.3 C202.3,664.9 198.6,651.1 197.3,645.7 C195.9,640.3 194.4,636.2 194,636.7 C193.7,637.1 189.8,651.1 185.5,667.8 L177.6,698 L168.3,698 C161.7,698 158.8,697.6 158.5,696.8 C158.2,696.1 156.3,688.1 154.1,679 C151.9,669.9 147.7,652 144.6,639.1 C141.5,626.2 139,615.1 139,614.3 C139,613.2 140.8,613 147.7,613.2 L156.4,613.5 L162.4,641.7 C165.7,657.2 168.7,669.6 169.1,669.2 C169.6,668.6 180.2,629.7 183.1,617.8 L184.2,613 L204.9,613 z" fill="#000000"/>
      <path d="M92.8,613 L94.4,619.8 C101.6,649.9 107.5,671 108.1,669.4 C108.4,668.3 111.4,655.2 114.6,640.3 L120.5,613 L129.3,613 C137.2,613 138.1,613.2 137.6,614.8 C137.3,615.7 134.3,628 130.9,642 C127.5,656 123.1,674.3 121.1,682.5 L117.5,697.5 L98.7,697.5 L90.6,666.8 C86.2,649.9 82.3,636.4 81.9,636.8 C81.6,637.2 78.5,648.1 75.1,661 C71.6,673.9 68,687.4 67,691 L65.3,697.5 L46.3,698.1 L44.1,688.8 C42.9,683.7 38.5,664.7 34.2,646.5 L26.4,613.5 L34.8,613.2 C39.5,613 43.4,613.1 43.6,613.3 C43.8,613.5 46.8,626.3 50.2,641.8 C53.6,657.3 56.7,669.4 57.1,668.7 C57.5,668.1 60.8,656 64.4,642 C68.1,628 71.3,615.7 71.6,614.8 C72.1,613.2 73.5,613 82.4,613 L92.8,613 z" fill="#000000"/>
    </g>
    <g id="Henry">
      <path d="M325.6,16 C327.5,16 327.5,22.9 325.5,27.7 C324.7,29.6 324,31.5 324,31.9 C324,32.2 331.4,32.6 340.4,32.8 C352.6,33 357.8,32.7 360.9,31.7 C364.7,30.3 365.1,30.4 366,32 C367.5,34.8 367.2,38.2 365,42.5 C363.9,44.6 363.3,46.7 363.8,47 C367.9,50.4 379,58 379.9,58 C380.5,58 380.9,58.4 380.7,58.9 C380.6,59.4 382.1,62 384.2,64.7 C388.7,70.6 391.9,78.5 393.1,86.5 C394.3,94.6 394.3,120.7 393,125 C392.5,126.9 391.3,133.7 390.5,140 C389.6,146.3 388.7,152.5 388.5,153.7 C388,155.7 388.4,156 390.8,156 C395,156 400.2,159.9 401.9,164.4 C403.1,167.7 403.2,169.9 402.2,178.4 C400.5,193.3 394.9,208.6 389.5,212.8 C388.1,214 385.6,215.1 384.1,215.5 L381.3,216.1 L381.8,223 C382,226.7 381.7,235.1 381,241.5 C379.8,252.6 379.6,253.4 375.4,259.6 L371.1,266 L373,276.3 C375.5,289.9 376.6,292.6 379.8,293.8 C381.3,294.4 387,296.5 392.5,298.5 C398,300.5 406.3,303.7 410.9,305.6 C415.5,307.5 419.5,308.9 419.7,308.6 C419.9,308.4 416.5,306.7 412.1,304.9 C407.6,303.1 404,301.3 404,300.9 C404,300.2 405.4,300.3 424,301.9 C430.3,302.5 439.7,303.2 444.9,303.6 C461.5,304.6 483.6,312.6 495.9,321.9 C501.9,326.4 510.9,336 515.7,343 C521.3,351.3 533.2,373.9 537.5,384.3 C549.1,412.8 553,432.8 553,463.2 C553,481.3 551.9,492.3 548.6,508 C547.2,514.3 545,525.1 543.5,532 C538.8,554.5 534.8,563.8 524.4,575.9 C518.1,583.2 504.4,587.9 490,587.8 C484.2,587.7 481.6,588.2 478.3,589.8 C464.9,596.7 448.1,600.7 425,602.5 C399.5,604.5 379,604.3 366.5,602 C361,601 348.9,598.8 339.5,597.1 C315.1,592.7 296,588 276,581.2 C266.4,577.9 256.7,574.5 254.4,573.6 L250.4,571.9 L241.9,575.9 C231.2,580.9 216.8,585.6 206.5,587.5 C181.9,592 141.3,594.1 129.2,591.6 C112,587.9 86.1,576.9 76.5,569.1 C67.4,561.8 61.1,557.9 54.4,555.4 C50.7,554.1 47,553 46,553 C42.4,553 40.9,550.4 38,538.8 C32.6,517.2 30.5,483 33.5,462.5 C37,438.2 38.1,431.4 40.6,422.3 C43.5,411 45.7,404.8 50.1,395.3 C53.8,387.2 61.6,368.3 63.7,362.1 C65.5,356.7 71.9,345 78.6,335 C83.5,327.4 91.6,318.6 98,313.8 C102.8,310.2 121.3,302.4 128,301.2 C144.9,298.1 181.5,296.1 182.2,298.2 C182.5,299 185.5,298.6 192.6,296.6 C207.6,292.3 220,287.1 221,284.6 C222.3,281.5 224.8,267.6 225.6,259.3 C226.2,252.8 226,252 224,249.8 C218.9,244.5 217.7,240.2 217.2,226.7 C216.8,216 216.4,213.7 215.1,213.2 C211.2,211.8 200.2,196.2 193.7,183 C191,177.3 190.6,175.4 190.5,168.2 C190.5,160 190.5,159.8 193.9,156.8 C196.7,154.3 197.9,153.9 201.6,154.2 C204.7,154.4 206,154.1 206,153.2 C206,152.5 204.6,146.2 202.9,139.2 C197.8,117.8 194.6,97.6 194.6,85.5 C194.6,75.6 194.8,74 197.2,69 C200.7,61.9 201.1,61.4 210.3,54.6 C225.2,43.6 239.5,37.9 265,32.9 C292.1,27.6 322,19.4 323.5,16.9 C323.9,16.4 324.8,16 325.6,16 z" fill="#000000"/>
      <path d="M380.5,595.9 C352.4,594.2 332.4,590.8 302.5,582.9 C294.3,580.7 283.7,578 279,576.9 C269.5,574.7 256,570.1 256,569.1 C256,568.8 260.4,565.6 265.7,562 C272.6,557.4 280.2,550.7 292,538.9 C301.1,529.8 311.4,520.5 314.7,518.2 C318.1,515.9 321.4,513.5 322.1,512.7 C329.9,504.9 362.8,481.1 375,474.4 C390.1,466.1 390.9,465.7 392.3,466.7 C394.7,468.6 398.3,468.9 401.4,467.3 C403.7,466.1 406.1,465.9 411.3,466.3 C418.8,467 420.6,466.3 426.7,460.7 L429.8,457.8 L445.7,458.2 C454.4,458.5 462.3,459 463.3,459.5 C464.5,460 465,459.8 465,458.7 C465,457.8 464.2,456.9 463.3,456.6 C461.8,456.2 433.4,454.1 427.5,454 C425.5,453.9 425.5,453.9 427.5,452.3 C428.6,451.5 432.9,449.2 437,447.3 C441.1,445.4 446.8,442.8 449.6,441.4 C452.4,440.1 456.1,438.7 457.9,438.4 L461.2,437.7 L460.5,442.4 C459.5,448.5 461.1,448.3 463.4,441.9 C465.4,436.3 465.9,436 477.1,433.3 C483.2,431.9 484.6,431.8 487.3,433 C489.1,433.7 495.9,435.2 502.5,436.3 C513.8,438.1 523,440.7 523,442.1 C523,443.9 503,444.5 494.6,442.9 C491.4,442.4 487.5,442.2 485.9,442.5 C482.5,443.3 476,448.5 476,450.4 C476,454.4 485.1,457.7 498.1,458.7 C505.1,459.2 508.7,458.8 516.6,457.1 C531.4,453.7 535.7,452.1 539,448.8 C544.8,443.1 542.9,436.9 533.8,431.8 C531.8,430.6 530.3,429.3 530.6,428.8 C531.2,427.9 543.5,428.6 545,429.5 C545.4,429.8 546.3,432.1 547.1,434.7 C548.8,440.5 548.8,476.3 547.2,493.6 C545.5,510.8 541.2,529.4 534.2,549.2 C530.3,560.1 529,562.7 523.5,569.9 C520,574.5 517.8,576.3 512.9,578.5 C507,581.1 495,583.4 495,581.9 C495,581.5 495.7,580.9 496.6,580.6 C498.4,579.9 497.6,578 495.4,578 C494.6,578 488.9,580.4 482.7,583.4 C469.9,589.6 457.7,593.5 444,595.5 C433.6,597.1 402.9,597.3 380.5,595.9 z M439.8,572.9 C439.4,571.6 426.4,566.3 420.1,564.9 C415.4,563.8 411.2,563.1 395.5,560.4 C390.6,559.6 375.5,558.3 362,557.6 C336.8,556.2 334.7,555.8 324.4,550.8 C316,546.6 298.3,544.5 297.3,547.6 C297.1,548.2 300.6,549.1 306.2,549.8 C312.6,550.5 319.3,552.3 327.5,555.3 L339.5,559.7 L359.5,560.3 C387.3,561.1 419.1,566 431.6,571.4 C438,574.1 440.4,574.6 439.8,572.9 z M455.8,542.6 C461.2,539.8 464.7,534.2 468.3,522.9 C468.8,521.3 474.7,520 481.4,520 C485.9,520 495,516.6 497.9,513.8 C501.4,510.4 505.2,501.2 505.1,496.3 C505.1,491.1 503.9,488.7 499.1,483.7 C494.1,478.4 491,477 484.2,477 C479.5,477 476.9,477.7 470.1,481 L461.8,485 L456.2,480.1 C448.3,473.4 444.1,471 439.8,471 C436.6,471 435.1,472 427.7,479 C423.1,483.4 418.9,486.6 418.5,486.2 C417.3,485.1 418.8,503.8 421,516.6 C422.1,523 423,530.1 423,532.4 C423,538.5 424.4,539.8 432.5,541 C436.4,541.6 441.3,542.5 443.5,542.9 C449.6,544.2 452.8,544.1 455.8,542.6 z M444,537 C444,537.6 444.5,538 445,538 C445.6,538 446,537.6 446,537 C446,536.5 445.6,536 445,536 C444.5,536 444,536.5 444,537 z M451.5,537 C451.8,537.6 452.3,538 452.6,538 C452.8,538 453,537.6 453,537 C453,536.5 452.5,536 451.9,536 C451.4,536 451.2,536.5 451.5,537 z M447.5,534 C447.8,534.6 448.6,535 449.1,535 C449.7,535 449.8,534.6 449.5,534 C449.2,533.5 448.4,533 447.9,533 C447.3,533 447.2,533.5 447.5,534 z M455.1,534.1 C458,535.9 459.2,534.3 456.6,532.1 C455.5,531.2 455,531.2 454.5,532.1 C454.1,532.7 454.4,533.6 455.1,534.1 z M450.3,531.3 C452.4,532.2 453,532 453,530.5 C453,529.7 452.1,529 451,529 C448.8,529 448.3,530.5 450.3,531.3 z M437.8,528.7 C439.8,529.9 441.6,530.9 441.6,531 C442,531.1 447,522.9 447,522.2 C447,521.5 442.8,519 441.6,519 C441.1,519 438.7,525.3 438.8,526.2 C438.9,526.6 437.9,526.5 436.5,526 C432.8,524.6 433.5,526.2 437.8,528.7 z M457,528.9 C457,529.5 457.5,530 458,530 C458.6,530 459,529.8 459,529.6 C459,529.3 458.6,528.8 458,528.5 C457.5,528.2 457,528.4 457,528.9 z M446,528 C446,528.6 446.5,529 447,529 C447.6,529 448,528.6 448,528 C448,527.5 447.6,527 447,527 C446.5,527 446,527.5 446,528 z M452.5,526.9 C453.3,528.2 456,528.4 456,527.1 C456,526.1 453,524.7 452.3,525.4 C452,525.7 452.1,526.3 452.5,526.9 z M449,523.9 C449,524.5 449.5,525 450,525 C450.6,525 451,524.8 451,524.6 C451,524.3 450.6,523.8 450,523.5 C449.5,523.2 449,523.4 449,523.9 z M432.4,521 C431.8,523.4 431.8,523.5 433.3,521.5 C435.2,519.2 435.5,517 434,517 C433.5,517 433,517.3 433,517.8 C433,518.2 432.7,519.6 432.4,521 z M428,520.9 C428,523.1 429.8,521.9 430.9,519 C431.4,517.3 431.5,516 431,516 C430,516 428,519.3 428,520.9 z M437,519 C437,519.6 437.5,520 438,520 C438.6,520 439,519.6 439,519 C439,518.5 438.6,518 438,518 C437.5,518 437,518.5 437,519 z M449,518.9 C449,519.5 449.5,520 450,520 C450.6,520 451,519.8 451,519.6 C451,519.3 450.6,518.8 450,518.5 C449.5,518.2 449,518.4 449,518.9 z M446,517.4 C446,519.2 446.6,519.5 447.5,518.1 C447.8,517.6 447.6,516.9 447,516.5 C446.5,516.2 446,516.6 446,517.4 z M481,497.5 C480.3,498.3 479,499 478.1,499 C473.7,499 472.4,492.2 476.2,489.6 C479.4,487.3 479.8,487.5 481.1,492 C482,495.1 482,496.3 481,497.5 z M474.4,500.8 C473.4,505 472.2,505.6 471,502.6 C469.5,498.6 469.7,498 472.5,498 C474.8,498 475,498.3 474.4,500.8 z M472.9,511.4 C474.3,513.1 475.9,513.4 478.5,512.4 C480,511.8 480,511.6 478.5,510 C477.5,508.9 477,507 477.2,505.3 C477.4,503.1 478.1,502.4 480.2,502.2 C482.4,501.9 483.1,502.4 483.6,504.4 C483.9,505.7 483.9,507.7 483.6,508.8 C483,510.4 483.5,510.9 486.2,511.3 C493.1,512.3 495.8,507.6 491.9,501.4 C490.2,498.6 489.7,496.3 489.7,491.9 C489.8,484.4 488.4,483.4 481.3,485.5 C478.7,486.3 475.2,487 473.7,487 C471.9,487 469.7,488.2 467.5,490.5 C464,494 463.1,496 465.1,496 C465.6,496 465.8,495.6 465.5,495 C465.2,494.5 465.4,494 466,494 C467.4,494 466.9,503.2 465.5,504.2 C464.9,504.7 465.2,505 466.1,505 C467.1,505 468,506.1 468.3,507.6 C468.6,509.5 468.4,510 467.3,509.6 C466.5,509.3 466.2,509.5 466.5,510 C466.8,510.6 468.1,510.8 469.4,510.4 C470.8,510.1 472.1,510.5 472.9,511.4 z M477.5,494 C477.8,494.6 478.3,495 478.6,495 C478.8,495 479,494.6 479,494 C479,493.5 478.5,493 477.9,493 C477.4,493 477.2,493.5 477.5,494 z M461.3,511.4 C465.2,512.9 465.9,511.7 463.3,508 C462,506.3 461.5,503.6 461.5,499.2 L461.5,492.9 L459.3,495.6 C456.1,499.7 455.6,503.7 458,507.6 C459.2,509.4 460.6,511.1 461.3,511.4 z M426.8,508.2 C430,510.1 431.4,510.4 430.5,509 C429.6,507.6 424,504.8 424,505.7 C424,506.2 425.2,507.2 426.8,508.2 z M430,506 C432.5,507.6 433.5,507.1 431.7,505.3 C430.8,504.4 429.7,504 429.3,504.4 C428.9,504.8 429.2,505.5 430,506 z M479,506 C479,506.6 479.5,507 480,507 C480.6,507 481,506.6 481,506 C481,505.5 480.6,505 480,505 C479.5,505 479,505.5 479,506 z M432,503 C432,505.4 435.2,503.7 438,499.8 C439.6,497.6 441,495.4 441,495.1 C441,494.4 435.2,490.4 432.9,489.5 C431.8,489.1 430.8,490.1 429.4,493.1 C428.1,496 427.9,497.5 428.7,497.7 C430.6,498.4 434.4,502 433.2,502 C432.5,502 432,502.5 432,503 z M439,501.5 C438.2,502.4 438.2,503 438.8,503 C440,503 441.4,501.1 440.7,500.4 C440.5,500.2 439.7,500.6 439,501.5 z M429.5,501 C429.8,501.6 430.3,502 430.6,502 C430.8,502 431,501.6 431,501 C431,500.5 430.5,500 429.9,500 C429.4,500 429.2,500.5 429.5,501 z M443,499 C443,499.6 443.5,500 444,500 C444.6,500 445,499.6 445,499 C445,498.5 444.6,498 444,498 C443.5,498 443,498.5 443,499 z M446,496.3 C446,496.8 446.9,496.5 448,495.5 C449.1,494.5 449.8,493.5 449.5,493.2 C448.9,492.5 446,495 446,496.3 z M442.2,493.1 C441.9,493.7 442.3,494.1 443,493.9 C444.2,493.4 444.5,492 443.3,491.9 C442.9,491.9 442.4,492.4 442.2,493.1 z M439,490 C439,490.6 439.5,491 440,491 C440.6,491 441,490.6 441,490 C441,489.5 440.6,489 440,489 C439.5,489 439,489.5 439,490 z M444.5,490.1 C444.9,490.6 445.5,491 446,491 C447.4,491 448.1,489.2 447,488.5 C445.7,487.7 443.8,488.9 444.5,490.1 z M435,488 C435,488.6 435.5,489 436,489 C436.6,489 437,488.6 437,488 C437,487.5 436.6,487 436,487 C435.5,487 435,487.5 435,488 z M441,486.6 C441,488.3 443.2,488 443.8,486.2 C444,485.5 443.5,485 442.6,485 C441.7,485 441,485.7 441,486.6 z M448.2,486.9 C447.9,487.7 448.3,488.1 449.1,487.8 C449.8,487.6 450.6,486.8 450.8,486.1 C451.1,485.3 450.7,484.9 449.9,485.2 C449.2,485.4 448.4,486.2 448.2,486.9 z M432.5,486 C432.2,486.6 432.4,487 432.9,487 C433.5,487 434,486.6 434,486 C434,485.5 433.8,485 433.6,485 C433.3,485 432.8,485.5 432.5,486 z M437.6,485.2 C438,485.8 438.6,485.8 439.3,485.1 C440.6,483.8 439.6,482.5 438.1,483.5 C437.5,483.8 437.3,484.6 437.6,485.2 z M444,483.1 C444,483.6 444.4,484 444.9,484 C446.2,484 448.4,481.1 447.7,480.3 C446.9,479.6 444,481.8 444,483.1 z M434.5,482 C434.2,482.6 434.4,483 434.9,483 C435.5,483 436,482.6 436,482 C436,481.5 435.8,481 435.6,481 C435.3,481 434.8,481.5 434.5,482 z M440,481.4 C440.1,482 441,481.4 442.1,480.1 C443.2,478.8 443.8,477.4 443.4,477.1 C442.7,476.4 440,479.9 440,481.4 z M97.9,479.9 C96.1,480.5 94.5,481 94.4,481 C93.6,481 94.1,479.1 95,478.5 C96.9,477.3 96.1,474.7 94,475.3 C92.9,475.6 91.7,475.4 91.4,474.9 C90.7,473.8 95.3,472 98.8,472 C101.4,472.1 101.4,472.1 99.5,473.3 C97.2,474.6 97.3,478.2 99.6,477.3 C100.4,477 101,477.2 101,477.8 C101,478.4 99.6,479.3 97.9,479.9 z M99,486 C97.5,486.3 96.3,487.6 95.9,489 C95.3,491.3 95.2,491.4 94.6,489.5 C94.2,488.4 93.4,486.5 92.9,485.2 C91.5,481.5 91.9,480.3 93.8,482.8 C95.3,484.7 95.9,484.9 98.8,484.1 C101.3,483.4 102,483.4 101.7,484.3 C101.5,484.9 100.3,485.7 99,486 z M103.1,494.9 L105.4,497 L100.2,497 C94.4,497 94,496.3 97.1,491.9 C99.4,488.6 102.5,487.9 101.5,490.9 C101.1,492.2 101.7,493.6 103.1,494.9 z M106.9,504.3 C106.7,504.5 104.9,505.6 102.9,506.8 L99.3,509 L98,506.5 C96.5,503.7 97.6,501.5 99.1,504.3 C100.6,507 102.1,506.3 101.4,503.3 C100.8,500.6 100.8,500.6 102.3,502.5 C104.2,505 105.6,503.9 104,501.1 C103.4,499.9 103.3,499 103.8,499 C104.8,499 107.6,503.8 106.9,504.3 z M110.8,513.4 C110.6,513.5 109.1,514.5 107.3,515.8 C104.1,518 104.1,518 103,516.1 C100.5,511.4 103.2,507.4 107.6,509 C109.3,509.7 111.7,513 110.8,513.4 z M173.5,548 C165.6,549.3 161,549.2 161,547.6 C161,546.7 163.1,546.1 168.3,545.6 C176.7,544.8 214,539.5 222,537.9 C228.1,536.7 233,535 240.5,531.5 C255.1,524.7 267.9,520.9 283.7,518.5 C295.8,516.7 297,516.7 297,518 C297,518.5 295.3,519.2 293.3,519.5 C277.5,521.9 267,524.5 262.2,527.2 C260.4,528.2 258.5,529 258,529 C257.5,529 254.1,530.4 250.4,532.1 C238.8,537.5 230.9,539.3 198.7,544.2 C187.6,545.8 176.3,547.5 173.5,548 z M141.9,588.6 C144.5,591.2 195.1,583.8 220.5,577.1 C238.9,572.2 241.6,571.4 247.7,568.2 C258.8,562.6 268.7,554.6 290.1,533.8 C301.9,522.5 314,511.2 317,508.8 C323.9,503.3 349.6,486.3 367.5,475.5 C376.9,469.9 381.1,467.2 386.2,463.9 C389.6,461.7 389.7,461.4 387.9,460.8 C386.8,460.4 380.6,459.5 374.2,458.9 C367.8,458.4 358.2,457.2 353,456.4 C339.2,454.2 322.6,452.3 296,450 C283.1,448.9 271.4,447.8 270,447.5 C268.6,447.3 263.2,446.8 258,446.5 C252.8,446.2 246,445.5 243,445 C240,444.5 227.2,443.8 214.5,443.4 L191.5,442.8 L189.2,446.8 C187.2,450.5 187.1,451.3 188.1,455.5 C188.9,458.8 189.8,460.1 191.4,460.4 C197.9,461.8 201.9,461.8 205.4,460.6 C207.9,459.7 210.4,459.5 212.2,460 C214,460.6 216.3,460.3 218.9,459.3 C223.4,457.5 227.7,458 233.4,460.9 C236.4,462.5 237.7,462.7 239.8,461.8 C242.5,460.8 253.8,460.4 257.5,461.3 C258.6,461.6 263,462.1 267.3,462.5 C271.5,462.9 275,463.7 275,464.1 C275,464.6 274,465 272.9,465 C271.1,465 271,465.2 272,466.5 C273.9,468.8 273,469 266.9,468 C262.9,467.4 261.2,467.5 260.5,468.4 C257.8,471.9 251.7,472.9 245.2,471.1 C242.9,470.4 240.3,470.6 236.2,471.7 C233.1,472.5 227.7,473.2 224.3,473.1 C220,473.1 217.8,473.5 216.9,474.6 C216.1,475.6 214.1,476 210.6,475.9 C206.9,475.8 204.3,476.4 201.1,478 C198,479.7 194.6,480.4 189.1,480.7 C176,481.4 175,482.2 178.6,489.2 C179.7,491.3 180,493.5 179.6,496.2 C179.1,498.9 179.3,499.9 180,499.5 C180.7,499.1 181,499.4 180.9,500.1 C180.5,502.6 183.3,507 185.2,507 C187,507 187,506.7 184.6,503.9 C181.2,499.9 181,493.6 184.2,491.9 C186.1,490.9 186.7,491.1 189.3,494.1 C190.9,496 191.8,496.6 191.2,495.5 C190.6,494.4 188.6,491.9 186.6,490.1 C184.5,488 183,485.6 183,484.2 C183,482.9 183.4,482.2 184,482.5 C184.6,482.8 185,484 185,485 C185,486.1 186.1,487.7 187.5,488.6 C190.7,490.7 194.4,496.6 193.6,498.5 C192.7,500.9 191.1,500.2 188.8,496.5 C187.7,494.5 186.6,493.1 186.3,493.3 C185.7,494 188.2,499 189.2,499 C189.6,499 190,499.5 190,500 C190,500.6 189.2,501 188.3,500.8 C187.2,500.6 186.5,501.1 186.5,502 C186.5,502.9 187.2,503.4 188.4,503.2 C189.8,502.9 190.1,503.3 189.6,504.5 C189.3,505.4 189,506.8 189,507.6 C189,508.5 187.9,509 186.2,509 C184.1,509 182.5,508 180.1,505 C177.2,501.4 177,500.5 177.5,496.7 C178,493.8 177.7,491.6 176.6,489.5 C175.7,487.9 175,485.7 175,484.8 C175,482.5 174.2,482.6 170.3,485 C166.4,487.3 166.3,488.2 169.2,496.5 C171.8,504 171.1,508.4 167.2,508.6 C164.6,508.7 163,505.8 163,501.2 C163,499.2 162.7,498.9 161.8,499.8 C161,500.6 160.9,501.6 161.7,503.3 C162.4,504.8 162.5,506.2 161.8,507.3 C161.1,508.6 161.3,509 162.4,509 C163.5,509 163.6,509.4 162.7,511.5 C162,512.8 160.8,514.2 160,514.5 C158.2,515.2 155,511.6 155,508.9 C155,507.9 154.6,506.9 154.2,506.6 C153.7,506.3 153.3,504 153.2,501.5 C153.2,497.6 153.5,496.7 155.5,495.8 C157.1,495.1 157.9,493.6 158.4,490.6 C158.7,488.4 159.3,485.1 159.6,483.3 C160.1,480.5 160,480.2 158.2,480.7 C157,481 154.5,480.7 152.6,480 C148.3,478.6 146.2,479.8 142.3,485.5 C138.7,490.8 138.2,496.1 140.9,499.6 C143.6,503 143.7,509 141.1,511.4 C139.6,512.7 139.1,512.8 138.7,511.8 C138.4,510.9 137.8,511 136.7,512.5 C135.3,514.3 135.2,514 134.5,507.7 C133.8,501 132.8,499.8 130.6,503.3 C129.8,504.5 129.9,505.6 130.8,507 C131.5,508.2 131.8,509.5 131.5,510 C131.2,510.4 131.6,511 132.2,511.3 C134.3,512 128.9,517.1 126.5,516.8 C125.1,516.6 124.4,515.6 124.2,513.5 C124.1,511.9 123.4,509.5 122.8,508.3 C120.7,504 123.2,499.2 128.3,497.6 C129.5,497.2 130,496 130,493.3 C130,491 131.3,486.8 133.2,483 C135,479.4 136.6,476.1 136.8,475.6 C137.5,474.2 130.3,475.7 125.5,478 C120.3,480.5 115.1,481.5 111.5,480.6 C106.5,479.3 103.6,470.9 105.9,464.7 C107.8,459.7 120.4,458.9 128.2,463.4 C130.2,464.5 132.1,465.2 132.4,465 C133.2,464.1 129.7,454.7 127.8,452.8 C126.8,451.8 126,450.1 126,449 C126,446.7 126.4,446.7 113,450.2 C106,452.1 101.9,454 104.9,454 C105.6,454 105.9,454.4 105.6,454.9 C105.3,455.4 103.2,455.6 101,455.3 C98.8,455 97,455 97,455.3 C97,457.4 98.6,459 100.5,459 C101.8,459 103.2,459.5 103.5,460 C103.9,460.6 102.7,461 100.7,461 C98,461 97.1,461.5 96.7,463.2 C95.6,467.3 95,464.4 95.6,458.3 L96.3,452.3 L101.9,450.5 C105,449.5 109.5,448.1 111.9,447.5 L116.2,446.3 L116.4,434.7 C116.5,425.1 116.2,422.9 115,422.5 C114.2,422.3 109.7,421.4 105,420.5 C100.3,419.6 92.6,418 87.7,417 C79.2,415.3 78.9,415.3 78,417 C77.4,418 77,419.7 77,420.6 C77,422.7 79.8,426 81.7,426 C83.8,426 83.3,428.2 80,433.3 C77.3,437.5 76.7,438 73.3,438 C62.1,438.1 47.1,438.9 44.4,439.5 C41.3,440.2 41.2,440.3 39.6,449.8 C35,477 35.3,491.5 41.1,529.9 C43.6,545.9 44.2,547.8 47.2,548.4 C66.4,552.6 69.3,553.7 68.7,556.2 C68.3,557.6 70.4,559.6 77.8,564.9 C96.6,578.1 109.4,583.4 130.5,586.5 C136.5,587.4 141.6,588.3 141.9,588.6 z M104,513.1 C104,515.5 105.2,515.5 107.4,513.1 C108.9,511.4 109,511.2 107.5,510.6 C105.3,509.8 104,510.7 104,513.1 z M98,494.1 C98,494.6 98.7,495 99.5,495 C100.4,495 100.7,494.4 100.4,493.5 C99.8,492 98,492.4 98,494.1 z M127.7,501.3 C128,501.7 127.7,502 127,502 C126.3,502 126,501.7 126.3,501.3 C126.7,501 127.3,501 127.7,501.3 z M125.7,505.3 C126,505.7 125.7,506 125,506 C124.3,506 124,505.7 124.3,505.3 C124.7,505 125.3,505 125.7,505.3 z M126.1,511.9 C126.3,514.6 126.4,514.2 126.9,510 C127.7,503.2 129.3,500.2 132.6,499.4 C135.8,498.6 138,500.6 139.6,505.8 L140.8,509.5 L140.9,505.9 C141,503.5 140.3,501.7 139,500.5 C135.1,497 137.2,487.5 143.2,481.3 C146.3,478.1 146.3,478 144.4,476.5 C143.4,475.7 142,475 141.3,475 C138.4,475 132,488.4 132,494.6 C132,497.6 131.6,498.3 129,499.1 C125.2,500.5 122.5,505.4 124.6,507.1 C125.4,507.7 126.1,509.9 126.1,511.9 z M129,513 C129,513.7 129.3,514 129.7,513.7 C130,513.3 130,512.7 129.7,512.3 C129.3,512 129,512.3 129,513 z M158.1,510.8 C159.4,514.2 159.8,513.4 159,508.9 C158.2,504.7 159.1,498.5 160.8,496.8 C162.5,495.1 166,497 167.5,500.3 C169.4,504.4 168.7,500.9 166.5,494.9 C164,488.6 165,485.7 170.6,482.4 C174.3,480.2 176.9,479.6 185.3,479 C196.2,478.2 199.1,477.4 204.5,473.7 C209.2,470.5 208,469.8 201.9,472.1 C199,473.3 191.1,474.6 182.5,475.4 C172.8,476.3 167.2,477.3 165.6,478.4 C163.1,480 161.5,484 160.4,491.5 C160,493.7 159.1,496.1 158.2,496.8 C157.3,497.4 157,498 157.4,498 C157.8,498 157.8,498.5 157.4,499.1 C156.9,499.9 156.6,499.9 156,499.1 C155.6,498.4 155.4,499.4 155.5,501.2 C155.7,504.4 156.1,505.7 158.1,510.8 z M128.5,509 C128.2,509.6 128.4,510 128.9,510 C129.5,510 130,509.6 130,509 C130,508.5 129.8,508 129.6,508 C129.3,508 128.8,508.5 128.5,509 z M135.5,506.4 C135.9,508.4 136.6,510 137.1,510 C138.3,510 138.2,504.9 137,503 C135.6,500.7 134.8,502.5 135.5,506.4 z M164,500 C164,500.7 164.3,501 164.7,500.7 C165,500.3 165,499.7 164.7,499.3 C164.3,499 164,499.3 164,500 z M184,496.8 C184,499 184.5,500 185.5,500 C187.3,500 187.3,499.9 185.5,496.4 L184,493.5 L184,496.8 z M151,476.6 C154.7,477.9 161.3,478.4 162.3,477.4 C162.6,477 159.4,475 155.1,472.9 C147.3,469.1 142.5,464.8 138.3,457.9 C136.1,454.5 136.1,454.3 137.8,450.7 C138.7,448.7 140.1,447.1 140.8,447 C141.8,447 141.7,447.7 140.5,450 C138.4,454 138.5,454.7 142.3,459.6 C145.8,464.3 147.9,464.9 153.7,462.8 C156.1,461.9 156.9,461.2 156.4,460 C156,459.2 155.2,456.7 154.6,454.4 C154,452.1 153,449.7 152.4,448.9 C151.8,448.1 151,446.7 150.7,445.7 C150.1,444.1 149.3,444 145.3,444.5 C138.2,445.5 137.3,445.9 136.7,448 C136.1,450.4 132.8,450.6 131,448.5 C130.3,447.7 129.4,447 128.9,447 C127.4,447 127.9,449.3 129.9,451.4 C130.9,452.6 132.5,455.8 133.4,458.7 C136.3,467.4 142,473.3 151,476.6 z M115,474.4 C115,475.3 115.5,476 116,476 C116.6,476 117,475.6 117,475.1 C117,474.5 116.6,473.8 116,473.5 C115.5,473.2 115,473.6 115,474.4 z M209.6,472.5 C209.2,473.6 209.8,474 212,474 C215.3,474 216.8,472.5 214.4,471.6 C211.8,470.6 210.2,470.9 209.6,472.5 z M179.7,470.9 L177.6,473 L181.4,473 C185.2,473 191,470.4 191,468.7 C191,466.9 181.8,468.7 179.7,470.9 z M192.1,471.6 C190.7,472.9 196.2,471.6 201.8,469.4 C211.6,465.5 215,462 209.1,462 C206.7,462 196.2,468 192.1,471.6 z M216.1,469.6 C219.6,470.2 224,470.8 225.8,470.9 C229.6,471 239.8,467.6 241.9,465.5 C244.7,462.8 242.1,462.7 236.6,465.4 C233.5,466.9 229.3,468.1 227.2,468.2 C221.9,468.3 215.1,467 214.4,465.8 C214.1,465.3 213,465.6 211.8,466.7 C209.8,468.5 209.9,468.5 216.1,469.6 z M250.3,469.3 C250,469.7 250.3,470 251,470 C251.7,470 252,469.7 251.7,469.3 C251.3,469 250.7,469 250.3,469.3 z M244,468 C246,469.3 248.3,469.3 247.5,468 C247.2,467.5 245.9,467 244.7,467 C242.9,467 242.8,467.2 244,468 z M114,467.1 C114,467.7 114.5,467.8 115,467.5 C115.6,467.2 116,466.4 116,465.9 C116,465.3 115.6,465.2 115,465.5 C114.5,465.8 114,466.6 114,467.1 z M157,465 C159.8,465.8 160.5,465.6 159.6,464.2 C159.3,463.6 158,463.5 156.7,463.8 C154.5,464.4 154.5,464.4 157,465 z M183.9,453.8 C184.6,455.1 184.8,456.5 184.6,456.8 C184.3,457 183.5,456.1 182.9,454.6 C181.5,451.5 182.6,447 185,446.2 C186.1,445.8 186,446.3 184.6,448.5 C183.1,450.7 183,451.7 183.9,453.8 z M183.1,463.3 C184.5,465.1 186.1,466 188.1,466 C191.4,466 191.7,465.4 189.4,462.9 C187.5,460.8 185.1,454.4 185,451.3 C185,450.1 186.2,447.8 187.6,446.1 L190.2,443 L184.6,443 C179.4,443 177.6,444 180,445.5 C180.6,445.9 180.8,448.1 180.4,451 C179.6,456.9 180.3,459.8 183.1,463.3 z M160.2,461.4 C163,464.8 166.2,466 167.4,464.1 C167.7,463.7 166.8,462.2 165.4,460.9 C160.1,456 158.5,449.3 161.7,445.8 C163.2,444.1 163.2,444 161.7,444 C160.7,444 160,444.5 160,445 C160,445.6 159.1,446 158.1,446 C157,446 155.8,445.6 155.5,445 C154.6,443.5 153,443.8 153,445.4 C153,446.2 153.7,447.1 154.6,447.4 C155.4,447.7 155.9,448.4 155.5,449 C154.5,450.7 157.1,457.7 160.2,461.4 z M230.2,463.8 C231.6,465.2 234,465.4 234,464.1 C234,463.6 231.8,462.4 229.1,461.5 C225.1,460.2 223.4,460.1 220.1,461 C217.8,461.6 216,462.2 216,462.3 C216,462.4 218.9,462.5 222.5,462.5 C226.3,462.5 229.4,463 230.2,463.8 z M396,464.1 C396,464.7 396.8,464.9 397.8,464.6 C398.7,464.4 401.4,463.9 403.7,463.5 C408,462.8 411.9,460 408.6,460 C407.7,460 405.3,460.7 403.3,461.5 C401.4,462.3 398.9,463 397.9,463 C396.8,463 396,463.5 396,464.1 z M410,463 C410,463.3 411.8,463.6 414,463.8 C416.2,463.9 418,463.7 418,463.2 C418,461.5 416.7,461.1 414.9,462.1 C413.4,462.8 413.2,462.7 413.6,461.5 C414,460.7 413.8,460 413.3,460 C412.3,460 410,462.1 410,463 z M170.3,462.3 C170,462.7 170.3,463 171,463 C171.7,463 172,462.7 171.7,462.3 C171.3,462 170.7,462 170.3,462.3 z M170.3,460.3 C179,461.4 178.5,461.7 178.4,454.2 C178.2,443.6 177.8,443 171.1,443 C165.7,443 165.4,443.1 163.6,446.4 C160.5,452.1 164.1,459.5 170.3,460.3 z M491.4,455.9 C494.2,456.3 496.9,456.3 497.4,455.9 C497.9,455.5 497.9,453.1 497.4,450.3 C496.5,445.8 496.3,445.5 493.1,445.2 C489.6,444.8 489.4,445.3 491.5,450.3 C491.9,451.3 491.8,452 491.1,452 C490.4,452 489.2,450.4 488.4,448.5 C487.6,446.6 486.5,445 485.8,445 C483.6,445 478.1,450 478.6,451.5 C479.3,453.2 484.5,455 491.4,455.9 z M404.5,453.3 C404.9,454.8 405.3,456 405.4,456 C405.4,456 405.5,447.6 405.6,437.2 C405.6,425.4 405.4,420 404.9,422.5 C403.9,427.5 403.6,449.7 404.5,453.3 z M410,449.3 C410,454 410.4,456 411.3,456 C411.9,456 415.8,452.8 419.8,449 C425.9,443.1 429.2,440.9 439.3,436.1 C455.1,428.5 474.6,421.9 489.5,419 C492.8,418.4 497.3,417.4 499.6,416.9 C506.9,415.3 536.4,412.8 540.8,413.4 C544,413.8 545,413.6 545,412.6 C545,410.5 542.6,410 532.2,410 C522.8,410 515.3,411 490,415.8 C475.7,418.6 452,426.6 440.5,432.7 C435.1,435.6 433.9,436.3 424,443 C420.5,445.4 416.8,447.3 415.8,447.3 C414.7,447.2 414,448 413.8,449.8 C413.6,451.3 413.1,452.5 412.5,452.5 C408.8,452.5 413.6,422.5 420.1,405.3 C423.6,395.8 426.8,390.4 433.1,383.5 C441.5,374.4 447.8,372.6 446.7,379.6 C446,383.6 445.7,384.3 436.1,400.8 C425.1,419.6 422.1,425.3 420,431.5 C417.9,437.5 418,438.6 420.2,434.3 C423.7,427.5 436.4,404.6 441.4,396.1 C450.2,381.1 452.6,371.1 447,371.9 C438.7,373 427.7,383.6 421.2,396.5 C414.2,410.5 410.1,429.9 410,449.3 z M513.7,450.7 L515.4,454.7 L522.4,453.4 C534.5,451 535,450.5 528,447 C524,445 515.6,444.3 513.2,445.8 C512.3,446.5 512.4,447.5 513.7,450.7 z M337.5,450.3 C337.1,451.2 337.2,452 337.7,452 C338.2,452 339.9,448.3 341.5,443.8 C343.1,439.2 345.9,431.9 347.8,427.5 C349.7,423.1 352.5,415.9 354.1,411.5 C359.7,396.6 362.2,390.5 367.1,380.8 C369.8,375.4 372,370.7 372,370.3 C372,370 370.2,372 368.1,374.9 C363.1,381.6 358,392.1 354.2,403.5 C352.5,408.5 349.2,417.7 346.7,424 C344.3,430.3 341.4,438.4 340.2,442 C339.1,445.6 337.8,449.3 337.5,450.3 z M323.7,450.4 C324,450.9 325.4,449.1 326.8,446.4 C329.7,440.6 332.8,437 334.8,437 C335.9,437 336.1,437.8 335.6,440 C335.3,441.7 334.8,444.5 334.5,446.3 C334.1,448.8 334.4,448.5 335.5,445 C337.1,440.3 337.8,433.4 336.7,432.4 C336.4,432.1 335.2,432.3 334.1,432.9 C331.7,434.3 322.9,449 323.7,450.4 z M305.8,448 C308.2,449.3 309.4,449.2 308.2,447.8 C306.2,445.1 297,423.2 295.1,416 C288.9,393.4 288.6,391.9 289.6,390.2 C291.1,387.8 294.3,387.6 296.8,389.7 C298,390.7 300.6,394.7 302.5,398.5 C306.7,406.9 307,405.7 303.3,395.9 C301.3,390.9 299.3,387.7 296.3,385 C289.3,378.4 285.2,382 286.5,393.5 C287.2,400.1 293.6,420.7 297.9,430.3 C299.4,433.7 301.5,438.9 302.4,441.7 C303.4,444.6 304.9,447.4 305.8,448 z M134,447 C134,447.6 134.2,448 134.4,448 C134.7,448 135.2,447.6 135.5,447 C135.8,446.5 135.6,446 135.1,446 C134.5,446 134,446.5 134,447 z M291.8,445.3 C295.7,449.8 293,444.6 288,438 C286.5,436.1 284,432.3 282.5,429.5 C278.3,422 266.5,405.8 254,390 C249.8,384.8 243.9,376.9 240.8,372.5 C230.9,358.4 217,344.7 217,349 C217,350.7 221.1,361 222.1,361.5 C222.6,361.9 222.6,361 222,359.5 C220.8,356.3 220.8,356 221.9,356 C224.8,356 243.4,377.8 260.1,400.9 C264.1,406.5 269.4,413.7 271.7,416.8 C274,419.9 279.1,427.2 283.1,433 C287.1,438.8 291,444.3 291.8,445.3 z M125.4,443.4 C124.7,445.1 124.2,445.2 139,442.5 C143.1,441.7 149.9,440.5 154.1,439.9 L161.8,438.6 L155.6,435.7 C152.3,434.1 146.7,431.8 143.3,430.5 L137.1,428.3 L131.5,434.1 C128.5,437.2 126,440.3 126,440.8 C126,441.4 125.7,442.5 125.4,443.4 z M120.7,442.9 C119.8,443.9 119.9,444 121.3,443.4 C122.3,443.1 122.8,442.5 122.5,442.2 C122.2,441.9 121.4,442.2 120.7,442.9 z M120.4,440.6 C118.6,442 118.6,442 121,440.9 C124.1,439.5 124.6,439 123.4,439 C122.8,439 121.5,439.7 120.4,440.6 z M166,436.1 C174.6,441 176,441.6 176,440.3 C176,439.8 173.4,438.2 170.2,436.7 C167.1,435.2 161.2,431.8 157.2,429.3 C150.6,425.1 149.5,423.9 146.4,417.8 C144.5,414 141.2,408.4 139,405.2 C134.9,399.3 134.3,398 136,398 C138.2,398 144.3,404.7 150.3,413.8 C153.8,419.1 157.5,424.2 158.5,425 C162,427.9 157.3,420.2 148.5,408.5 C141.5,399.2 139.4,397.1 134.6,394.7 C131.5,393.1 128.2,392 127.3,392.2 C125.8,392.5 126.3,393.3 129.6,397 C136,404.2 140.4,410.1 142.3,414.3 C144.3,419 144.3,419 142.8,419 C142.1,419 139.5,416.9 136.9,414.4 C133.9,411.5 130.9,409.5 128.4,409 C122.4,407.6 119.9,408 125.3,409.5 C130,410.8 137,414.8 137,416.2 C137,417.4 135.2,418.1 134.6,417.1 C134.3,416.6 131,415.2 127.4,413.9 C123.7,412.6 120.5,411 120.3,410.3 C120,409.6 118.7,409 117.3,409 C116,409 108.9,407 101.7,404.5 C92.8,401.4 84.3,399.3 75.5,397.9 C68.4,396.9 61.7,395.7 60.8,395.4 C58.1,394.6 51.4,396.1 53.2,397.1 C54,397.6 56,397.9 57.6,397.8 C67.7,397.4 90.9,402.3 110.1,408.9 C128.1,415.1 133.9,418 166,436.1 z M359.1,439.7 C359.1,440.7 360.4,439 361.9,436 C363.4,433 365.6,428.7 366.8,426.6 C369.1,422.3 368.9,420.5 366.4,423.6 C364.1,426.4 359,437.7 359.1,439.7 z M118,439.5 C118,439.8 120,439 122.5,437.8 C124.9,436.6 126.8,435.5 126.6,435.2 C126.1,434.8 118,438.8 118,439.5 z M118,436.1 C118,437 125.4,433.9 130.6,430.8 C134.1,428.7 135.3,427.3 132.3,428.8 C131.3,429.3 127.7,431 124.3,432.5 C120.8,434.1 118,435.7 118,436.1 z M513.7,435.7 C518.8,437.2 520.6,437.2 526.5,435.1 L531.5,433.3 L528,431.2 C522.7,427.9 515.8,428.2 512.5,431.8 L510,434.5 L513.7,435.7 z M44.1,433.1 C46.4,434.5 48.4,434.2 54.8,431 C59.7,428.5 61.3,427.1 62.9,423.6 C65.2,418.9 65.7,413.1 63.8,412.6 C63.1,412.3 60.2,411.9 57.3,411.6 C52.9,411.2 51.8,411.4 49.6,413.5 C48.2,414.8 47,416.7 47,417.7 C47.1,419.4 47.1,419.4 48.4,417.8 C49.4,416.4 51.2,416 56.4,416 C62.6,416 63,416.1 63,418.3 C63,420.6 59.9,421.8 49,423.9 C46.2,424.4 45.3,425.2 44.1,428.3 C42.9,431.6 42.9,432.3 44.1,433.1 z M118,433.2 C118,433.7 121.2,432.4 125,430.5 C132.2,426.9 134.6,424.9 128.8,427.4 C122,430.2 118,432.4 118,433.2 z M492,432 C495.5,432.9 498.1,432 495.2,430.7 C494.1,430.2 492.3,430.1 491.3,430.5 C489.7,431.2 489.8,431.4 492,432 z M162.5,429.6 C163.5,430.4 164.5,430.8 164.8,430.6 C165,430.3 165.2,426.6 165.1,422.2 C165,416.3 164.3,411.9 162.1,405.4 C160.5,400.5 158.9,394.9 158.5,393 C157.9,389.8 156.9,387.2 153.7,380 C151.8,375.7 142.1,359.6 139.4,356.3 C137.9,354.5 137.3,353 138,353 C138.6,353 146.3,360.3 155.1,369.2 C163.8,378.1 171,385 171,384.6 C171,384.2 168.6,381.3 165.7,378.2 C162.8,375.1 155.3,366.7 149,359.5 C139.2,348.2 130.5,340.2 129.3,341.3 C128.8,341.8 136.2,355.1 139.2,359.1 C140.6,361 145.2,369.1 149.4,377.3 C156.2,390.3 157.5,393.6 160.1,405.1 C163.2,418.8 163.8,426.4 161.8,427.6 C161,428.1 161.3,428.7 162.5,429.6 z M122.3,427.4 C119.7,428.8 118.1,429.9 118.8,430 C120.5,430 128.3,426 127.7,425.4 C127.4,425.1 125,426 122.3,427.4 z M48.3,421.3 C48,421.7 48.3,422 49,422 C49.7,422 50,421.7 49.7,421.3 C49.3,421 48.7,421 48.3,421.3 z M52.5,418 C52.8,418.6 53.5,419 54.1,419 C54.6,419 55,418.6 55,418 C55,417.5 54.3,417 53.4,417 C52.6,417 52.2,417.5 52.5,418 z M406.1,411.4 C406,412.5 406.3,413.1 406.6,412.7 C406.9,412.4 407,411.5 406.7,410.8 C406.4,410 406.1,410.3 406.1,411.4 z M407.7,404.5 L407,409.5 L409.1,404 C410.2,401 412,395.8 412.9,392.5 C413.9,389.2 416.1,383.7 417.9,380.3 C420.9,374.2 422,370.6 420.1,372.5 C419.6,373.1 417.6,376.4 415.7,380 C411.8,387.4 408.5,397.1 407.7,404.5 z M67,382 C67,382.7 67.3,383 67.7,382.7 C68,382.3 68,381.7 67.7,381.3 C67.3,381 67,381.3 67,382 z M67,379 C67,379.7 67.3,380 67.7,379.7 C68,379.3 68,378.7 67.7,378.3 C67.3,378 67,378.3 67,379 z M69.6,368.7 C70.2,371.1 70.5,370.5 71,365 C71.4,360.9 72.7,356.5 74.4,353.2 C75.9,350.2 77,346.9 76.8,345.7 C76.6,344 75.8,344.9 73.3,349.5 C69.9,356 68.3,364.2 69.6,368.7 z M294,359.3 C304.5,360.4 310,359.6 323.3,355.3 C330.7,353 328.3,352.7 319.4,355 C307.6,357.9 290.2,357.8 277.9,354.6 C272.7,353.2 268.4,352.3 268.2,352.4 C268.1,352.6 270.1,353.7 272.7,354.8 C277.2,356.7 285.4,358.5 294,359.3 z M333.8,351 C330.9,352 329,352.9 329.6,352.9 C333.4,353.2 354.7,343.6 365.7,336.7 C371.9,332.8 382.8,322.2 385.4,317.6 C387.8,313.4 389.3,304.9 388.3,301.1 C387.5,297.9 386.3,298.6 386.8,302 C387.4,306 385.2,314.7 382.5,319 C375.8,329.6 354.4,343.6 333.8,351 z M256,348.6 C264,351.7 266.9,352.5 265.9,351.6 C265.7,351.4 261.4,349.4 256.5,347.2 C248.4,343.7 234.3,335.1 223.7,327.3 C218.5,323.5 212.3,315.3 210.4,309.6 C209.5,306.9 209,302.8 209.2,299.5 C209.3,296.5 209.4,294 209.2,294 C209,294 208.1,294.8 207,295.8 C206,296.7 201.3,298.8 196.5,300.5 C191.8,302.1 188.1,303.9 188.4,304.5 C188.6,305.1 186.4,307.3 183.4,309.5 C180.5,311.7 178.1,313.9 178,314.3 C178,314.8 181.5,312.5 185.8,309.2 C193.3,303.5 198.8,300.4 199.7,301.4 C200,301.7 198.9,303.1 197.4,304.5 C193.5,308.1 196.4,306.6 201.8,302.2 C204.2,300.3 206.3,299 206.5,299.2 C206.7,299.4 207.3,302.3 207.9,305.7 C208.4,309.2 209.7,313.6 210.7,315.7 C213.1,321 221.8,329 233,336.4 C244.7,344.2 245.5,344.6 256,348.6 z M298.5,343.3 C314,344.8 328.7,342.5 341.1,336.8 C352.8,331.3 365.6,322.4 371.2,315.7 C378.1,307.4 378.5,305.8 376,299.6 C373.3,292.9 371.5,286 370,277.5 C369.3,273.7 368.4,269.9 368.1,269.2 C367.6,268.3 365.5,269.4 360.9,273.2 C357.3,276.1 350.2,281.9 345.1,286 C340.1,290 335.1,294.9 334,296.6 C331.5,301 326.2,303.4 315.8,305 C299.9,307.4 286.8,304.6 279.1,297.2 C276.5,294.6 271.3,290.3 267.6,287.5 C258.8,280.9 241.8,266.7 235.6,260.8 C232.9,258.2 230.4,256.3 230,256.5 C229.6,256.8 228.9,260 228.5,263.7 C227.5,273.9 225.1,286.9 223.3,292.8 C221.9,297.1 221.2,298 219.8,297.7 C217,296.9 217.5,300.7 221,306.7 C227.5,318 247.1,331.1 267.8,338 C275.2,340.4 283.6,341.9 298.5,343.3 z M168.5,302.5 C163.8,304.6 167.9,304.1 173.5,301.9 C177.6,300.4 177.9,300.1 175,300.6 C173.1,301 170.2,301.8 168.5,302.5 z M246,162.5 C246,163.9 243.9,162.7 242.4,160.5 C241.3,158.8 241,156.9 241.4,155 C241.9,152.2 241.7,152 239,152 C237.4,152 234.2,152.7 232,153.6 C229.7,154.5 227.6,155 227.3,154.6 C226.2,153.5 229.7,147.2 234,142.7 L238,138.3 L236,126.7 C233.8,113.2 231.4,107.7 226.2,104.7 C221.8,102.1 224.1,101 228.9,103.4 C233.4,105.8 236.7,113.6 238.7,126.8 C240.2,136.6 240.7,138.1 242.5,138.4 C243.6,138.6 251,140.3 259,142 C280.8,146.9 288.1,148.2 292,147.6 C294.8,147.2 295.8,147.5 296.8,149 C297.6,150.3 297.6,151.1 296.9,151.6 C296.3,151.9 296.1,152.8 296.4,153.5 C296.6,154.2 295.9,155 294.7,155.4 C291.4,156.2 290.6,154.5 293.4,152.6 C294.9,151.7 296,150.5 296,149.9 C296,149.4 294.4,150.1 292.4,151.6 C289.7,153.7 287.4,154.5 282.9,154.8 C276.8,155.3 276.1,155.7 278.2,157.8 C279.1,158.7 279,159 277.7,159 C276.8,159 276,159.5 276,160 C276,162.3 274.1,160.8 273.8,158.3 C273.6,156.6 272.6,155.1 271,154.3 C268.6,153.1 268.5,153.2 268.2,156.3 C267.7,160.9 265.4,163 260.8,163 C255.5,163 251.5,159.2 252.4,154.9 C252.9,152 252.9,152 248.6,152 C244.7,152 244.1,152.3 243.6,154.6 C243.1,156.3 243.5,158.1 244.5,159.6 C245.3,160.9 246,162.2 246,162.5 z M316.8,194.5 C316.6,198.6 316.2,202 315.9,202 C314.1,202 312.5,198.1 312.4,193.6 C311.9,172.3 310.8,154.5 310,153.5 C309.4,152.8 309.4,152 310.1,151.3 C310.9,150.5 310.9,150 310.1,149.6 C307.5,148 309.4,147 315.1,147 C319.6,147 323,146.2 328.4,144 C338.8,139.6 348.4,137.1 356.8,136.3 C365.1,135.6 365,135.5 370.1,145.4 C373.1,151.2 373.1,151.3 370.8,150.5 C369.6,150.1 366.2,149.5 363.3,149.3 L358.1,148.8 L358.8,151.7 C359.9,155.6 359.2,158.5 356.9,160.6 C354.4,162.9 353.4,161.8 355.4,158.8 C357.4,156.1 357.4,153 355.7,150.6 C354.6,149 353.5,148.8 349.8,149.4 L345.2,150.1 L346.7,153.1 C348,155.8 348,156.3 346.6,158.5 C343.2,163.7 332,160.8 332,154.7 C332,153.7 331.5,153 330.8,153.3 C330.1,153.5 329.5,154.9 329.5,156.3 C329.4,157.7 329.1,159.2 328.7,159.6 C328.3,160 328,159.8 328,159.2 C328,158.5 327,158 325.9,158 C324.3,158 323.9,157.5 324.3,156 C324.7,154.3 324.3,154 321.9,154 C319.2,154 319,154.3 319,157.7 C319,159.8 319.7,163.3 320.6,165.7 C321.9,169.1 323.3,170.6 327.9,173.1 C331,174.9 332.9,176.5 332.2,176.8 C329.6,177.7 325.7,175.8 320.8,171.2 L315.7,166.5 L316.5,172 C317.3,177.4 317.3,179.7 316.8,194.5 z M312.4,217.5 C306.5,221.5 295.2,220.5 291.1,215.7 C290.4,214.7 288.3,214 286.4,214 C283.9,214 282.6,213.3 281.4,211.5 C280.6,210.2 280.1,208.6 280.5,208 C281,207.2 281.6,207.7 282.4,209.2 C283.3,211 284.5,211.6 287.8,211.8 C290.1,212 292,212.5 292,213.1 C292,213.6 293.5,214.9 295.3,216 C300,218.9 307.4,218.7 311.5,215.6 C313.2,214.3 315.9,213 317.5,212.8 C320.2,212.5 321,211.7 322.6,207.5 C323.3,205.7 323.4,205.8 323.8,208.3 C324.2,211.8 321.6,215 318.4,215 C317.1,215 314.4,216.1 312.4,217.5 z M321.7,248.4 C319.2,250.3 317.3,250.5 304.8,250.8 C295,251.1 291,250.8 291.5,250.1 C291.9,249.4 296.6,249 303.9,249 C314.5,249 316,248.8 319,246.8 C323.2,244 323.5,242.9 321.3,240.2 C319.6,238.2 318.3,238.1 297,237.7 C281.5,237.4 272.3,237.6 267.5,238.5 C263.7,239.2 260.3,239.6 260.1,239.4 C258.7,238.2 262.9,236.2 268.3,235.4 C281.3,233.6 329.6,235.1 339.5,237.6 C340.9,237.9 342,238.9 342,239.7 C342,240.8 341.5,241 340.3,240.5 C339.3,240.1 335.3,239.5 331.4,239.3 L324.2,238.8 L324.4,242.5 C324.5,245.5 323.9,246.6 321.7,248.4 z M310.5,261.5 C308.9,261.6 304.6,261.9 301,262.4 C296.8,262.9 294.9,262.9 295.5,262.2 C298.7,259.2 312.4,257.9 317.5,260.2 C321.1,261.8 320.6,263.1 316.8,262.2 C315,261.8 312.2,261.5 310.5,261.5 z M309.2,288.2 C310.2,288.8 310,289 308.7,289 C306.8,289 305.4,286.7 306.5,285 C307.5,283.3 309.3,283.9 308.6,285.7 C308.2,286.6 308.5,287.7 309.2,288.2 z M292.1,300.8 C294.5,301.4 301.9,301.7 308.6,301.6 C324,301.3 327.3,299.9 331.3,292 C333.5,287.5 334,285.3 333.8,280.3 C333.7,276.8 333.9,273.8 334.2,273.5 C335.4,272.3 337.3,276.3 337.9,281.2 L338.5,286.4 L343.6,281.9 C346.4,279.5 353.9,273 360.4,267.6 C367.4,261.6 373.1,255.8 374.7,253.1 L377.5,248.5 L377.2,224.5 C377.1,210.9 376.3,194 375.4,185.5 C374.3,175.7 374,166.9 374.4,160 C376.2,127.8 376.2,113.6 374.5,103 C369.5,72.9 357.4,67 319,76 C298,80.9 285.8,80.6 262.5,74.5 C254.2,72.3 247.2,72.4 239.6,75 C234.1,76.8 232.2,78.1 227.1,83.6 C218.2,93 218.4,92.1 218.4,141.5 L218.5,183.5 L222.6,188.5 C227.1,193.9 237.9,209.7 242.1,217 C244.3,220.7 244.8,223.3 245.4,231.5 C245.9,239.5 246.5,242.1 248.2,244.4 C250.4,247.5 250.4,247.8 249.5,261.2 L249.1,266.9 L259.8,276.4 C265.6,281.7 270.9,285.9 271.6,285.8 C272.3,285.6 276.3,288.7 280.3,292.7 C286.1,298.2 288.7,300.1 292.1,300.8 z M179.3,299.3 C179,299.7 179.3,300 180,300 C180.7,300 181,299.7 180.7,299.3 C180.3,299 179.7,299 179.3,299.3 z M240.5,260 L246.5,264.8 L247.4,257.3 C248.2,250.6 248.1,249.6 246.2,247.1 C244.7,245 243.9,241.5 243,232.9 C241.8,221.2 240.7,218.1 236,212 C234.6,210.1 231.7,205.8 229.7,202.5 C227.8,199.2 224.5,194.9 222.5,193 L218.9,189.6 L219.5,197 C219.8,201.1 220.5,207.9 221,212 C221.5,216.1 222.2,224 222.4,229.6 C222.7,235.2 223.3,240.6 223.7,241.6 C224.8,244.7 234.1,254.8 240.5,260 z M388,201.6 C388,202.4 387.5,203 386.9,203 C386.3,203 386,201.8 386.2,200.3 C386.4,198.2 386.1,197.5 384.8,197.5 C382,197.5 381.7,196.2 383.9,193.2 C386.7,189.2 386.6,188.1 382.9,186.8 C379.8,185.7 379.8,185.6 380.3,180.3 C380.9,174.5 383.9,168.8 387.6,166.3 C389.9,164.9 390.2,164.9 392,166.5 C394.4,168.7 395.7,174.7 394.1,176.3 C393.3,177.1 393,176.8 393,175 C392.9,167.7 389.7,165.8 386.1,170.9 L384,173.8 L386.6,173.8 C388,173.8 389.5,174.1 390,174.6 C391,175.6 393.1,187.2 392.4,187.9 C391.9,188.5 388,184.9 388,183.8 C388,183.3 388.5,183.2 389,183.5 C390.1,184.2 390.3,182.6 389.4,178.1 C388.9,175.5 388.3,175.1 386.1,175.2 C382.9,175.5 382,176.6 382,180.7 C382,183.2 382.7,184.3 385,185.7 C388.4,187.7 388.6,188.9 386.5,192.9 C385.2,195.6 385.2,195.8 387.2,196.3 C388.6,196.7 389.1,197.4 388.6,198.5 C388.3,199.4 388,200.8 388,201.6 z M380.1,198.3 C381.2,210.5 381.5,212 383.2,212 C391.3,212 401,178 396.8,164 C395.6,160.1 395,159.5 392.4,159.2 C388.8,158.8 384.3,162.1 381,167.6 C378.4,171.7 378.3,177.5 380.1,198.3 z M212.5,198.1 C212.9,199.4 212.7,200 211.7,200 C209.9,200 208.7,197.3 210.1,196.4 C210.7,196.1 210.1,194.5 208.6,192.5 C204.8,187.5 205.6,183 210.2,183 C212.4,183 212.4,183.2 210,176.8 C207.1,169.3 205.1,166.9 202.1,167.7 C199.9,168.2 199.8,168.7 200.3,173.1 C200.9,178.1 199.7,179.9 198.6,175.8 C197.3,170.7 197.9,167 200.3,166.1 C202.2,165.3 202.3,165.1 200.8,164.5 C198.3,163.5 198.5,162.1 201,162.7 C204.3,163.6 210.3,171.3 212.8,177.7 C215.7,185.4 215.6,186.1 211.9,185.8 C207.6,185.4 207.3,187.1 211,191.3 C212.9,193.5 213.7,195.1 213,195.5 C212.4,195.9 212.2,197 212.5,198.1 z M212.8,206.8 C214.1,208.5 215.5,210 215.9,210 C216.9,210 216.9,194.3 215.9,181.1 C214.5,163.5 212.8,160.3 203.6,157.8 C199,156.6 198.7,156.6 196.9,158.9 C194.4,162 194.3,172.2 196.8,178.8 C198.8,184 208.7,201.4 212.8,206.8 z M377.7,161.3 C378.2,164 378.3,164 380.1,162.4 C381.9,160.8 381.9,160.6 380.3,158.8 C378.2,156.5 377,157.6 377.7,161.3 z M213.2,160.4 C214.3,162.4 214.4,162.3 215.2,159.1 C216.3,155.1 215.4,153.8 213.5,156.4 C212.4,157.9 212.3,158.8 213.2,160.4 z M380.7,156.6 C384,159.2 385,158.9 385,154.9 C385,153 384.4,151.7 383.3,151.3 C382.3,151 380.7,150 379.8,149.2 C378.1,147.8 378,147.9 378,151.1 C378,153.5 378.7,155 380.7,156.6 z M211,153.9 L211.1,156.5 L213.5,153.5 C214.9,151.8 216,149.2 216,147.6 L216,144.6 L213.5,148 C212.1,149.9 211,152.5 211,153.9 z M381.3,148 C383,149.1 384.8,150 385.1,150 C385.5,150 386,148.2 386.2,146 C386.5,142.7 386.2,142 384.8,142 C383.9,142 382.3,140.9 381.2,139.5 C380.1,138.1 378.9,137 378.6,137 C378.3,137 378,139 378,141.5 C378,145.5 378.4,146.2 381.3,148 z M209,147 C209,148.1 209.3,149 209.8,149 C211.4,149 216.4,141.4 216.7,138.3 C217.1,134.1 216.5,134.1 214.4,138.3 C213.5,140 211.9,142.3 210.9,143.3 C209.8,144.3 209,146 209,147 z M207,139.6 C208,142.5 208.4,142.9 209.7,141.9 C212.2,139.7 217,129.2 217,125.8 L217,122.5 L215,125 C213.9,126.4 212.5,129 211.9,130.8 C211.1,133.4 210.5,133.9 209.5,133 C207.2,131.1 205.6,135.3 207,139.6 z M380.8,136.5 C384.7,141.3 386.7,141 387.5,135.7 C388.3,130.4 387.9,126.4 386.5,126.7 C386,126.8 385.3,127.9 385,129.1 C384.4,131.4 384.4,131.3 382.2,128.6 C381,127 380,125.2 379.9,124.6 C379.9,124 379.5,124.4 379,125.5 C377.3,129.3 378,133.2 380.8,136.5 z M204.5,129.5 C205.1,132.2 205.3,132.3 206.4,130.7 C207.1,129.8 208.3,129 209.1,129 C211,129 216,119.6 216,116.1 C216,110.9 214.2,111.8 210.6,118.7 C207,125.7 206.7,125.8 207,120.3 C207.1,118.5 206.9,117 206.5,117 C205.5,117 203,123.8 203.4,125.2 C203.7,125.9 204.1,127.8 204.5,129.5 z M380.6,123 C382.9,126.4 383.5,126.8 384.2,125.5 C384.8,124.6 385.9,124.1 386.9,124.5 C388.4,124.9 388.9,124.3 389.4,120.8 C390,117.1 389.8,116.3 387.4,114.1 L384.8,111.5 L385.4,115.3 C386.3,120.1 385,120 381.4,114.8 L378.5,110.6 L378.2,114.8 C378,117.9 378.5,119.9 380.6,123 z" fill="#FFFFFF"/>
    </g>
  </g>
</svg>
